<?xml version="1.0" encoding="UTF-8"?>
<svg id="Layer_1" xmlns="http://www.w3.org/2000/svg" version="1.1" viewBox="0 0 32 32">
  <!-- Generator: Adobe Illustrator 30.1.0, SVG Export Plug-In . SVG Version: 2.1.1 Build 136)  -->
  <path d="M22.47,19.22c0-.6-.52-1.09-1.12-1.09h-11.05c-.7,0-1.15.54-1.15,1.2v7.62c0,.66.46,1.17,1.13,1.17l2.11.02s-.73,1.14-.74,1.16c-.06.14-.11.25-.09.4.02.15.08.29.2.38.27.23.66.18.99.17h6.61c.16,0,.3-.01.45-.1.18-.11.3-.31.3-.53,0-.18-.2-.46-.2-.46l-.67-1.04h2.01c.71,0,1.23-.46,1.23-1.18v-7.74.02ZM12.8,29.31l.63-1.17h4.73l.67,1.17h-6.04.01ZM21.52,27.19h-11.42v-.7h11.42v.7ZM21.52,25.54h-11.42v-6.46h11.42v6.46Z"/>
  <path d="M28.08,3.53c-6.37-2.4-17.91-2.41-24.25.03-1.07.41-3.01,1.47-3.01,2.8l.02,13.92c0,.8.86,1.45,1.44,1.83,1.42.93,2.97,1.31,4.61,1.75.23.06.63.02.81-.1.16-.11.33-.47.33-.72v-6.16c5.32-.9,10.61-.91,15.93,0v6.16c0,.24.17.61.33.72.18.12.57.16.81.1,1.64-.43,3.19-.81,4.61-1.75.58-.38,1.44-1.03,1.44-1.83l.02-13.92c0-1.35-2.01-2.42-3.09-2.83ZM7.09,22.89c-1.42-.24-4.9-1.27-5.32-2.74v-11.86c1.91,1.24,3.26,1.55,5.32,2.1v12.5ZM29.07,21.43c-1.26.68-2.55,1.16-4.15,1.45v-12.49c2.06-.55,3.41-.85,5.31-2.1v11.85c-.21.58-.66.93-1.16,1.29ZM30.12,6.92c-.85,1.38-3.74,2.14-5.29,2.5-.48.11-.86.48-.86.99v5.5c-.53-.1-1.07-.19-1.63-.26l-.09-.02h-.02c-4.56-.63-9.85-.54-14.19.28v-5.38c0-.58-.29-.96-.87-1.1-1.54-.36-4.43-1.11-5.28-2.5-.73-1.19,1.79-2.31,2.63-2.61,6.21-2.19,16.87-2.2,23.05.03.83.3,3.26,1.41,2.55,2.58h0Z"/>
</svg>