<?xml version="1.0" encoding="UTF-8"?>
<svg id="Layer_1" xmlns="http://www.w3.org/2000/svg" version="1.1" xmlns:xlink="http://www.w3.org/1999/xlink" viewBox="0 0 32 32">
  <!-- Generator: Adobe Illustrator 30.1.0, SVG Export Plug-In . SVG Version: 2.1.1 Build 136)  -->
  <defs>
    <style>
      .st0 {
        fill: #fcffff;
      }

      .st1 {
        fill: url(#radial-gradient);
        filter: url(#outer-glow-1);
      }
    </style>
    <radialGradient id="radial-gradient" cx="20.2" cy="3.56" fx="20.2" fy="3.56" r="15.78" gradientUnits="userSpaceOnUse">
      <stop offset="0" stop-color="#59fcb3"/>
      <stop offset=".5" stop-color="#33db98"/>
      <stop offset="1" stop-color="#2b976c"/>
    </radialGradient>
    <filter id="outer-glow-1" x="7.64" y="1.13" width="16.72" height="16.72" filterUnits="userSpaceOnUse">
      <feOffset dx="0" dy="0"/>
      <feGaussianBlur result="blur" stdDeviation="1.37"/>
      <feFlood flood-color="#59fcb3" flood-opacity=".74"/>
      <feComposite in2="blur" operator="in"/>
      <feComposite in="SourceGraphic"/>
    </filter>
  </defs>
  <circle class="st1" cx="16" cy="9.49" r="8.36"/>
  <path class="st0" d="M31.88,24.75c-.09-.67-.71-1.14-1.37-1.04-.67.09-1.13.71-1.04,1.37.18,1.28-2.17,2.39-4.08,2.99v-10.38s.95-.33.95-.33l1.1-.38c.63-.22,1.18-.47,1.69-.78,1.84-1.12,2.12-2.34,2.03-3.16-.26-2.4-3.91-3.83-5.02-4.21-.12-.04-.24-.06-.36-.07.02.24.03.48.03.72,0,.6-.06,1.19-.16,1.76,1.15.43,2.26,1.08,2.78,1.59.25.24.24.64-.01.87-.13.12-.31.26-.55.41-.35.21-.75.39-1.21.55-.58.2-1.18.35-1.77.54-.28.09-.56.2-.83.32-.58.25-1.11.56-1.11,1.28v10.32c-1.09-.86-2.19-1.72-3.28-2.58-2.14-1.68-4.29-3.37-6.43-5.05-1.48-1.16-2.95-2.35-4.44-3.49-.94-.72-2.34-.96-3.44-1.34-.46-.16-.86-.34-1.21-.55-.24-.15-.42-.29-.55-.41-.25-.23-.26-.63-.01-.87.52-.51,1.63-1.16,2.78-1.59-.1-.57-.16-1.16-.16-1.76,0-.24.01-.48.03-.72-.12,0-.24.02-.36.07-1.11.38-4.76,1.8-5.02,4.21-.09.83.19,2.05,2.03,3.16.5.31,1.05.56,1.69.78l2.06.7v10.38c-1.89-.59-4.21-1.68-4.08-2.96.05-.51-.14-1.02-.59-1.26-.82-.44-1.71.08-1.82.89-.6,4.37,6.65,5.93,7.48,6.1.08.02.16.02.24.02.4,0,.78-.2,1.02-.55.14-.21.2-.46.2-.71v-10.28c1.08.85,2.16,1.7,3.24,2.54,2.12,1.67,4.25,3.34,6.37,5.01,1.5,1.18,2.99,2.37,4.5,3.54.31.24.61.45,1.03.44,1.26-.03,2.76-.68,3.89-1.2,1.3-.59,2.65-1.42,3.37-2.7.38-.67.52-1.44.42-2.21Z"/>
</svg>