<?xml version="1.0" encoding="UTF-8"?>
<svg id="Layer_1" xmlns="http://www.w3.org/2000/svg" version="1.1" xmlns:xlink="http://www.w3.org/1999/xlink" viewBox="0 0 126.1 126.1">
  <!-- Generator: Adobe Illustrator 30.5.1, SVG Export Plug-In . SVG Version: 2.1.4 Build 3)  -->
  <defs>
    <style>
      .st0 {
        fill: #ff2ea9;
      }

      .st1 {
        fill: url(#linear-gradient);
      }

      .st2 {
        fill: #59fcb3;
      }
    </style>
    <linearGradient id="linear-gradient" x1="63.05" y1="-79.11" x2="63.05" y2="-47" gradientUnits="userSpaceOnUse">
      <stop offset="0" stop-color="#2b976c"/>
      <stop offset=".5" stop-color="#33db98"/>
      <stop offset="1" stop-color="#59fcb3"/>
    </linearGradient>
  </defs>
  <g id="Bug_Hunter_Badge_1">
    <g id="Background">
      <g id="Warning">
        <path class="st2" d="M98.57,23.79c.04.94.12,1.88.19,2.81l.19,2.54c0,.11.02.22.02.32.02.29.14.54.35.74.21.2.46.3.75.3.55,0,.98-.39,1.1-.91.08-.35.07-.73.09-1.08.02-.28.04-.57.07-.85.11-1.45.24-2.9.29-4.35,0-.06,0-.12,0-.18.01-.42-.13-.78-.41-1.08-.29-.3-.64-.45-1.06-.45h-.16c-.79,0-1.45.64-1.47,1.43,0,.03,0,.06,0,.1,0,.22.01.44.03.66Z"/>
        <circle class="st2" cx="100.1" cy="33.58" r="1.95"/>
        <path class="st2" d="M118.65,40.28c-.08-.18-.12-.28-.12-.28l-17.33-30.02c-.22-.39-.63-.62-1.08-.62s-.86.24-1.08.62l-14,24.24c1.47-.72,3.12-1.13,4.86-1.13.1,0,.2,0,.31,0l6.88-11.92c.14-.24.18-.52.1-.79l-.16-.58s0,0,0,0h0c-.01-.05-.25-.94-.25-.94-.02-.07,3.33-5.77,3.33-5.77l3.27,5.67-.45,2.1c.02.11.06.22.12.32l7.05,12.2c.14.24.37.41.63.49l1.63.44,2.93,5.07h-6.08l-1.17-1.17c-.2-.2-.46-.31-.74-.31h-8.28c.81,1.18,1.41,2.52,1.71,3.97h16.72c.44,0,.86-.24,1.08-.62.17-.3.21-.64.12-.96Z"/>
      </g>
      <path class="st1" d="M124.04,58.47h-10.33c-.43-4.7-1.51-9.22-3.14-13.46h-9.61v.76c1.82,3.94,3.04,8.22,3.54,12.71h-3.54v7.25c0,.65-.06,1.28-.17,1.9h3.74c-2.07,19.42-17.51,34.9-36.92,37.02v-11.16c0-1.14-.92-2.06-2.06-2.06h-5.03c-1.14,0-2.06.92-2.06,2.06v11.16c-19.4-2.13-34.84-17.6-36.92-37.02h3.54c-.11-.62-.17-1.25-.17-1.9v-7.25h-3.35c.49-4.32,1.64-8.45,3.35-12.27v-2.03c0-5.41,3.9-9.92,9.03-10.88,6.49-6.32,15.03-10.56,24.52-11.6v10.92c0,1.14.92,2.06,2.06,2.06h5.03c1.14,0,2.06-.92,2.06-2.06v-10.92c6.36.7,12.29,2.83,17.47,6.06l4.58-7.93c-6.52-4.02-14.02-6.61-22.05-7.33V2.06c0-1.14-.92-2.06-2.06-2.06h-5.03c-1.14,0-2.06.92-2.06,2.06v10.43c-24.37,2.18-43.85,21.62-46.09,45.98H2.06c-1.14,0-2.06.92-2.06,2.06v5.03c0,1.14.92,2.06,2.06,2.06h10.3c2.13,24.47,21.66,44.03,46.11,46.22v10.2c0,1.14.92,2.06,2.06,2.06h5.03c1.14,0,2.06-.92,2.06-2.06v-10.2c24.45-2.19,43.98-21.75,46.11-46.22h10.3c1.14,0,2.06-.92,2.06-2.06v-5.03c0-1.14-.92-2.06-2.06-2.06Z"/>
    </g>
    <path id="Foreground" class="st0" d="M84.51,44.17h0c0,2.98-2.41,5.39-5.39,5.39h-32.33c-2.98,0-5.39-2.41-5.39-5.39h0c0-2.98-2.41-5.39-5.39-5.39h0c-2.98,0-5.39,2.41-5.39,5.39v21.56c0,2.98,2.41,5.39,5.39,5.39h0c2.98,0,5.39-2.41,5.39-5.39h0c0-2.98,2.41-5.39,5.39-5.39h0c2.98,0,5.39,2.41,5.39,5.39h0c0,2.98-2.41,5.39-5.39,5.39h0c-2.98,0-5.39,2.41-5.39,5.39v10.78c0,2.98,2.41,5.39,5.39,5.39h0c2.98,0,5.39-2.41,5.39-5.39h0c0-2.98,2.41-5.39,5.39-5.39h10.78c2.98,0,5.39,2.41,5.39,5.39h0c0,2.98,2.41,5.39,5.39,5.39h0c2.98,0,5.39-2.41,5.39-5.39v-10.78c0-2.98-2.41-5.39-5.39-5.39h0c-2.98,0-5.39-2.41-5.39-5.39h0c0-2.98,2.41-5.39,5.39-5.39h0c2.98,0,5.39,2.41,5.39,5.39h0c0,2.98,2.41,5.39,5.39,5.39h0c2.98,0,5.39-2.41,5.39-5.39v-21.56c0-2.98-2.41-5.39-5.39-5.39h0c-2.98,0-5.39,2.41-5.39,5.39Z"/>
  </g>
</svg>