<?xml version="1.0" encoding="UTF-8"?>
<svg id="Layer_1" xmlns="http://www.w3.org/2000/svg" version="1.1" xmlns:xlink="http://www.w3.org/1999/xlink" viewBox="0 0 126.1 126.1">
  <!-- Generator: Adobe Illustrator 30.5.1, SVG Export Plug-In . SVG Version: 2.1.4 Build 3)  -->
  <defs>
    <style>
      .st0 {
        fill: url(#linear-gradient1);
      }

      .st1 {
        fill: #ff2ea9;
      }

      .st2 {
        fill: url(#linear-gradient);
      }
    </style>
    <linearGradient id="linear-gradient" x1="55.43" y1="-21.5" x2="55.43" y2="-12.77" gradientUnits="userSpaceOnUse">
      <stop offset="0" stop-color="#2b976c"/>
      <stop offset=".5" stop-color="#33db98"/>
      <stop offset="1" stop-color="#59fcb3"/>
    </linearGradient>
    <linearGradient id="linear-gradient1" x1="63.05" y1="-11.6" x2="63.05" y2="9.95" xlink:href="#linear-gradient"/>
  </defs>
  <g id="Bug_Hunter_Badge_3">
    <g id="Background">
      <g id="Warning">
        <path class="st1" d="M102.84,21.11c.04.94.12,1.88.19,2.81.06.85.13,1.69.19,2.54,0,.11.02.22.02.32.02.29.14.54.35.74.21.2.46.3.75.3.55,0,.98-.39,1.1-.91.08-.35.07-.73.09-1.08.02-.28.04-.57.07-.85.11-1.45.24-2.9.29-4.35,0-.06,0-.12,0-.18.01-.42-.13-.78-.41-1.08-.29-.3-.64-.45-1.06-.45h-.16c-.79,0-1.45.64-1.47,1.43,0,.03,0,.06,0,.1,0,.22.01.44.03.66Z"/>
        <circle class="st1" cx="104.36" cy="30.9" r="1.95"/>
        <path class="st1" d="M122.91,37.59c-.08-.18-.12-.28-.12-.28l-17.33-30.02c-.22-.39-.63-.62-1.08-.62-.45,0-.86.24-1.08.62l-16.76,29.04c.66.86,1.18,1.82,1.55,2.85h.9c.31-.88.74-1.72,1.28-2.49h-1.06l2.94-5.1,1.52-.41c.27-.07.49-.25.63-.49l7.05-12.2c.14-.24.18-.52.1-.79l-.16-.58s0,0,0,0h0c-.01-.05-.25-.94-.25-.94-.02-.07,3.33-5.77,3.33-5.77l3.27,5.67-.45,2.1c.02.11.06.22.12.32l7.05,12.2c.14.24.37.41.63.49l1.63.44,2.93,5.07h-6.08l-1.17-1.17c-.2-.2-.46-.31-.74-.31h-5.64c1.13,1.1,2.01,2.45,2.54,3.97h13.25c.44,0,.86-.24,1.08-.62.17-.3.21-.64.12-.96Z"/>
      </g>
      <path class="st2" d="M27.29,32.28c2.17,0,4.19.68,5.85,1.83,6.59-6.78,15.45-11.33,25.34-12.41v10.59h9.15v-10.59c6.36.7,12.29,2.83,17.47,6.06l4.58-7.93c-6.52-4.02-14.02-6.61-22.05-7.33V2.06c0-1.14-.92-2.06-2.06-2.06h-5.03c-1.14,0-2.06.92-2.06,2.06v10.43c-15.44,1.38-28.91,9.69-37.28,21.78,1.71-1.25,3.81-2,6.09-2Z"/>
      <path class="st0" d="M124.04,58.47h-10.33c-.43-4.7-1.51-9.22-3.14-13.46h-1.53v18.2c0,3.85-2.12,7.22-5.26,8.99-2.16,9.74-7.74,18.22-15.4,24.09-.44,1.84-1.37,3.53-2.74,4.9-1.95,1.95-4.54,3.02-7.3,3.02h-.24c-1.42,0-2.78-.29-4.01-.81-2.1.58-4.26.99-6.47,1.24v-10.72h-9.15v10.72c-2.28-.25-4.51-.69-6.67-1.29-1.27.56-2.67.87-4.14.87-2.76,0-5.35-1.07-7.3-3.02-1.39-1.39-2.33-3.11-2.76-4.98-7.6-5.86-13.13-14.28-15.29-23.96-3.19-1.76-5.35-5.15-5.35-9.04v-20.62c0-.37.02-.74.06-1.11-2.48,5.24-4.09,10.96-4.64,16.98H2.06c-1.14,0-2.06.92-2.06,2.06v5.03c0,1.14.92,2.06,2.06,2.06h10.3c2.13,24.47,21.66,44.03,46.11,46.22v10.2c0,1.14.92,2.06,2.06,2.06h5.03c1.14,0,2.06-.92,2.06-2.06v-10.2c24.45-2.19,43.98-21.75,46.11-46.22h10.3c1.14,0,2.06-.92,2.06-2.06v-5.03c0-1.14-.92-2.06-2.06-2.06Z"/>
    </g>
    <path id="Foreground" class="st1" d="M88.67,78.57h-.26c-2.78,0-5.03,2.26-5.03,5.04v10.3c0,2.78-2.25,5.04-5.03,5.04h-.24c-2.78,0-5.03-2.25-5.03-5.03v-.23c0-2.78-2.25-5.03-5.03-5.03h-10.31c-2.78,0-5.03,2.25-5.03,5.03v.23c0,2.78-2.25,5.03-5.03,5.03h0c-2.78,0-5.03-2.25-5.03-5.04v-10.3c0-2.78-2.25-5.03-5.03-5.04h-.24c-2.78,0-5.03-2.25-5.03-5.03v-.25c0-2.78-2.25-5.03-5.03-5.03h0c-2.78,0-5.03-2.25-5.03-5.03v-20.62c0-2.78,2.25-5.03,5.03-5.03h0c2.78,0,5.03,2.25,5.03,5.03v.25c0,2.78,2.25,5.03,5.03,5.03h.24c2.78,0,5.03-2.25,5.03-5.03v-.26c0-2.78,2.25-5.03,5.03-5.03h30.68c2.78,0,5.03,2.25,5.03,5.03v.26c0,2.78,2.25,5.03,5.03,5.03h.24c2.78,0,5.03-2.25,5.03-5.03v-.25c0-2.78,2.25-5.03,5.03-5.03h0c2.78,0,5.03,2.25,5.03,5.03v20.62c0,2.78-2.25,5.03-5.03,5.03h0c-2.78,0-5.03,2.25-5.03,5.04v.25c0,2.78-2.25,5.03-5.03,5.04ZM47.66,57.94h0c-2.78,0-5.03,2.25-5.03,5.03v.25c0,2.78,2.25,5.03,5.03,5.03h0c2.78,0,5.03-2.25,5.03-5.03v-.25c0-2.78-2.25-5.03-5.03-5.03ZM78.35,57.94h-.24c-2.78,0-5.03,2.25-5.03,5.03v.25c0,2.78,2.25,5.03,5.03,5.03h.24c2.78,0,5.03-2.25,5.03-5.03v-.25c0-2.78-2.25-5.03-5.03-5.03Z"/>
  </g>
</svg>