<?xml version="1.0" encoding="UTF-8"?>
<svg id="Layer_1" xmlns="http://www.w3.org/2000/svg" version="1.1" xmlns:xlink="http://www.w3.org/1999/xlink" viewBox="0 0 126.1 126.14">
  <!-- Generator: Adobe Illustrator 30.5.1, SVG Export Plug-In . SVG Version: 2.1.4 Build 3)  -->
  <defs>
    <style>
      .st0 {
        fill: url(#linear-gradient1);
      }

      .st1 {
        fill: #ff2ea9;
      }

      .st2 {
        fill: url(#linear-gradient);
      }

      .st3 {
        fill: #59fcb3;
      }
    </style>
    <linearGradient id="linear-gradient" x1="53.21" y1="-26.41" x2="53.21" y2="-15.69" gradientUnits="userSpaceOnUse">
      <stop offset="0" stop-color="#2b976c"/>
      <stop offset=".5" stop-color="#33db98"/>
      <stop offset="1" stop-color="#59fcb3"/>
    </linearGradient>
    <linearGradient id="linear-gradient1" x1="63.05" y1="-169.07" x2="63.05" y2="-122.87" xlink:href="#linear-gradient"/>
  </defs>
  <g id="Bug_Hunter_Badge_2">
    <g id="Background">
      <g id="Warning">
        <g>
          <path class="st3" d="M98.57,23.79c.04.94.12,1.88.19,2.81l.19,2.54c0,.11.02.22.02.32.02.29.14.54.35.74.21.2.46.3.75.3.55,0,.98-.39,1.1-.91.08-.35.07-.73.09-1.08.02-.28.04-.57.07-.85.11-1.45.24-2.9.29-4.35,0-.06,0-.12,0-.18.01-.42-.13-.78-.41-1.08-.29-.3-.64-.45-1.06-.45h-.16c-.79,0-1.45.64-1.47,1.43,0,.03,0,.06,0,.1,0,.22.01.44.03.66Z"/>
          <circle class="st3" cx="100.1" cy="33.58" r="1.95"/>
        </g>
        <path class="st3" d="M91.35,41.86c1.19-1.76,2.88-3.16,4.87-3.97h-3.02c-.28,0-.54.11-.74.31l-1.17,1.17h-1.5v2.49s1.56,0,1.56,0Z"/>
        <path class="st3" d="M118.65,40.28c-.08-.18-.12-.28-.12-.28l-17.33-30.02c-.22-.39-.63-.62-1.08-.62s-.86.24-1.08.62l-11.71,20.28c.9,1.08,1.57,2.32,1.98,3.64l.1-.03c.27-.07.49-.25.63-.49l7.05-12.2c.14-.24.18-.52.1-.79l-.16-.58s0,0,0,0h0c-.01-.05-.25-.94-.25-.94-.02-.07,3.33-5.77,3.33-5.77l3.27,5.67-.45,2.1c.02.11.06.22.12.32l7.05,12.2c.14.24.37.41.63.49l1.63.44,2.93,5.07h-6.08l-1.17-1.17c-.2-.2-.46-.31-.74-.31h-2.95c1.31.53,2.51,1.33,3.54,2.36.5.5.94,1.04,1.33,1.62h8.23c.44,0,.86-.24,1.08-.62.17-.3.21-.64.12-.96Z"/>
      </g>
      <path class="st2" d="M25.82,37.1c1.43,0,2.8.28,4.05.79,6.76-8.85,16.97-14.93,28.6-16.2v10.92c0,1.14.92,2.06,2.06,2.06h5.03c1.14,0,2.06-.92,2.06-2.06v-10.92c6.36.7,12.29,2.83,17.47,6.06l4.58-7.93c-6.52-4.02-14.02-6.61-22.05-7.33V2.06c0-1.14-.92-2.06-2.06-2.06h-5.03c-1.14,0-2.06.92-2.06,2.06v10.43c-18.57,1.66-34.3,13.35-41.73,29.6,1.91-3,5.26-4.99,9.07-4.99Z"/>
      <path class="st0" d="M124.04,58.47h-10.33c-.41-4.48-1.41-8.79-2.91-12.86.15.73.23,1.47.23,2.23v10.74c0,4.45-2.72,8.28-6.59,9.91-.61,4.75-2.02,9.26-4.1,13.37,0,.02-.01.05-.02.07-1.15,2.27-2.49,4.42-4.02,6.43-.03.02-.05.04-.08.06-2.38,3.12-5.2,5.9-8.35,8.24-.02.03-.05.06-.07.09-2.37,1.75-4.92,3.26-7.64,4.48-.05,0-.09.01-.14.02-3.86,1.73-8.04,2.89-12.41,3.37v-11.16c0-1.14-.92-2.06-2.06-2.06h-5.03c-1.14,0-2.06.92-2.06,2.06v11.16c-4.37-.48-8.54-1.64-12.4-3.36-.04,0-.09-.01-.13-.01-2.72-1.23-5.3-2.74-7.67-4.5-.02-.03-.05-.06-.07-.09-3.14-2.34-5.95-5.11-8.33-8.22-.03-.02-.05-.04-.08-.06-1.53-2.01-2.87-4.16-4.02-6.43,0-.02-.01-.05-.02-.07-2.07-4.12-3.49-8.62-4.1-13.37-3.87-1.63-6.59-5.46-6.59-9.91v-10.74c0-.79.09-1.56.25-2.3-1.51,4.09-2.52,8.42-2.93,12.93H2.06c-1.14,0-2.06.92-2.06,2.06v5.03c0,1.14.92,2.06,2.06,2.06h10.3c.07.84.17,1.67.28,2.49h0c3.18,23.31,22.2,41.65,45.83,43.77v10.2c0,1.14.92,2.06,2.06,2.06h5.03c1.14,0,2.06-.92,2.06-2.06v-.04s0,0,0,0v-10.15c23.63-2.12,42.66-20.46,45.83-43.77h0c.11-.82.21-1.66.28-2.49h10.3c1.14,0,2.06-.92,2.06-2.06v-5.03c0-1.14-.92-2.06-2.06-2.06Z"/>
    </g>
    <path id="Foreground" class="st1" d="M79.05,95.82h0c-2.9,0-5.25-2.35-5.25-5.25v-.24c0-2.9-2.35-5.25-5.25-5.25h-10.74c-2.9,0-5.25,2.35-5.25,5.25v.24c0,2.9-2.35,5.25-5.25,5.25h-.25c-2.9,0-5.25-2.35-5.25-5.25v-.24c0-2.9-2.35-5.25-5.25-5.25h-.25c-2.9,0-5.25-2.35-5.25-5.25v-10.75c0-2.9-2.35-5.25-5.24-5.25h0c-2.9,0-5.25-2.35-5.25-5.25v-10.74c0-2.9,2.35-5.25,5.25-5.25h0c2.9,0,5.25,2.35,5.25,5.25v.02c0,2.9,2.35,5.25,5.25,5.25h.25c2.9,0,5.25-2.35,5.25-5.25v-10.76c0-2.9,2.35-5.25,5.25-5.25h.25c2.9,0,5.25,2.35,5.25,5.25v.27c0,2.9,2.35,5.25,5.25,5.25h10.74c2.9,0,5.25-2.35,5.25-5.25v-.27c0-2.9,2.35-5.25,5.25-5.25h0c2.9,0,5.25,2.35,5.25,5.25v10.76c0,2.9,2.35,5.25,5.25,5.25h.25c2.9,0,5.25-2.35,5.25-5.25h0c0-2.91,2.35-5.26,5.25-5.26h0c2.9,0,5.25,2.35,5.25,5.25v10.74c0,2.9-2.35,5.25-5.25,5.25h0c-2.9,0-5.25,2.35-5.25,5.25v10.75c0,2.9-2.35,5.25-5.24,5.25h-.26c-2.9,0-5.25,2.35-5.24,5.25v.24c0,2.9-2.35,5.24-5.24,5.25ZM47.31,63.84h-.25c-2.9,0-5.25,2.35-5.25,5.25v.26c0,2.9,2.35,5.25,5.25,5.25h.25c2.9,0,5.25-2.35,5.25-5.25v-.26c0-2.9-2.35-5.25-5.25-5.25ZM79.04,63.84h0c-2.9,0-5.25,2.35-5.25,5.25v.26c0,2.9,2.35,5.25,5.25,5.25h0c2.9,0,5.25-2.35,5.25-5.25v-.26c0-2.9-2.35-5.25-5.25-5.25Z"/>
  </g>
</svg>