<?xml version="1.0" encoding="UTF-8"?>
<svg id="Layer_1" xmlns="http://www.w3.org/2000/svg" version="1.1" viewBox="0 0 256 60">
  <!-- Generator: Adobe Illustrator 29.3.1, SVG Export Plug-In . SVG Version: 2.1.0 Build 151)  -->
  <defs>
    <style>
      .st0 {
        fill: #b2b2b2;
      }
    </style>
  </defs>
  <g>
    <path class="st0" d="M37.808343,29.780424c.051758,2.322266-1.435547,4.670898-4.631836,4.670898h-3.091797v-9.132812h3.091797c3.092773,0,4.580078,2.21875,4.631836,4.461914ZM30.789788,25.984526v7.788086h2.386719c2.713867,0,3.966797-2.035156,3.927734-3.992188-.040039-1.904297-1.291992-3.795898-3.927734-3.795898h-2.386719Z"/>
    <path class="st0" d="M39.188226,31.228666c0-1.930664,1.460938-3.326172,3.274414-3.326172s3.430664,1.108398,3.183594,3.626953h-5.805664c.129883,1.512695,1.291016,2.386719,2.62207,2.386719.847656,0,1.839844-.338867,2.322266-.978516l.456055.365234c-.625977.822266-1.748047,1.240234-2.77832,1.240234-1.813477,0-3.274414-1.265625-3.274414-3.314453ZM45.072015,30.967924c-.013672-1.591797-1.056641-2.478516-2.609375-2.478516-1.331055,0-2.478516.900391-2.62207,2.478516h5.231445Z"/>
    <path class="st0" d="M46.544671,28.00601h.704102l2.348633,5.702148,2.348633-5.702148h.704102l-2.700195,6.445312h-.705078l-2.700195-6.445312Z"/>
    <path class="st0" d="M53.339593,31.228666c0-1.930664,1.460938-3.326172,3.274414-3.326172s3.430664,1.108398,3.183594,3.626953h-5.805664c.129883,1.512695,1.291016,2.386719,2.62207,2.386719.847656,0,1.839844-.338867,2.322266-.978516l.456055.365234c-.625977.822266-1.748047,1.240234-2.77832,1.240234-1.813477,0-3.274414-1.265625-3.274414-3.314453ZM59.223382,30.967924c-.013672-1.591797-1.056641-2.478516-2.609375-2.478516-1.331055,0-2.478516.900391-2.62207,2.478516h5.231445Z"/>
    <path class="st0" d="M62.090569,25.31851v9.132812h-.638672v-9.132812h.638672Z"/>
    <path class="st0" d="M63.577874,31.242338c0-2.048828,1.460938-3.353516,3.274414-3.353516s3.274414,1.304688,3.274414,3.353516c0,2.047852-1.460938,3.300781-3.274414,3.300781s-3.274414-1.25293-3.274414-3.300781ZM69.500726,31.242338c0-1.669922-1.1875-2.75293-2.648438-2.75293-1.461914,0-2.648438,1.083008-2.648438,2.75293s1.186523,2.673828,2.648438,2.673828c1.460938,0,2.648438-1.003906,2.648438-2.673828Z"/>
    <path class="st0" d="M71.598382,37.138822v-9.132812h.625977v1.527344c.508789-.978516,1.539062-1.618164,2.791992-1.618164,1.748047.06543,3.130859,1.239258,3.130859,3.313477,0,2.166016-1.460938,3.339844-3.274414,3.339844-1.095703,0-2.113281-.535156-2.661133-1.604492v4.174805h-.613281ZM77.508538,31.228666c0-1.813477-1.174805-2.700195-2.635742-2.700195-1.5,0-2.609375,1.134766-2.609375,2.713867,0,1.578125,1.134766,2.712891,2.609375,2.712891,1.460938,0,2.635742-.913086,2.635742-2.726562Z"/>
    <path class="st0" d="M79.345452,31.228666c0-1.930664,1.460938-3.326172,3.274414-3.326172s3.430664,1.108398,3.183594,3.626953h-5.805664c.129883,1.512695,1.291016,2.386719,2.62207,2.386719.847656,0,1.839844-.338867,2.322266-.978516l.456055.365234c-.625977.822266-1.748047,1.240234-2.77832,1.240234-1.813477,0-3.274414-1.265625-3.274414-3.314453ZM85.229241,30.967924c-.013672-1.591797-1.056641-2.478516-2.609375-2.478516-1.331055,0-2.478516.900391-2.62207,2.478516h5.231445Z"/>
    <path class="st0" d="M93.641351,25.31851v9.132812h-.625977v-1.421875c-.535156.978516-1.591797,1.526367-2.6875,1.526367-1.800781,0-3.222656-1.1875-3.222656-3.327148,0-2.125977,1.435547-3.326172,3.235352-3.326172,1.109375,0,2.152344.469727,2.674805,1.512695v-4.09668h.625977ZM87.731194,31.228666c0,1.787109,1.1875,2.701172,2.635742,2.701172,1.513672,0,2.634766-1.109375,2.634766-2.713867s-1.147461-2.701172-2.634766-2.701172c-1.448242,0-2.635742.900391-2.635742,2.713867Z"/>
    <path class="st0" d="M99.691155,25.31851v4.09668c.521484-1.042969,1.56543-1.512695,2.674805-1.512695,1.799805,0,3.235352,1.200195,3.235352,3.326172,0,2.139648-1.421875,3.327148-3.222656,3.327148-1.095703,0-2.152344-.547852-2.6875-1.526367v1.421875h-.625977v-9.132812h.625977ZM99.703851,31.215971c0,1.604492,1.12207,2.713867,2.635742,2.713867,1.448242,0,2.635742-.914062,2.635742-2.701172,0-1.813477-1.1875-2.713867-2.635742-2.713867-1.487305,0-2.635742,1.09668-2.635742,2.701172Z"/>
    <path class="st0" d="M112.39428,28.00601l-3.926758,9.132812h-.677734l1.186523-2.765625-2.583008-6.367188h.691406l1.5,3.80957.756836,1.866211.744141-1.878906,1.617188-3.796875h.691406Z"/>
    <path class="st0" d="M139.561272,29.663236h5.257812v.665039h-5.257812v4.135742h-.704102v-9.145508h6.144531v.705078h-5.44043v3.639648Z"/>
    <path class="st0" d="M146.134515,31.242338c0-2.048828,1.460938-3.353516,3.274414-3.353516s3.274414,1.304688,3.274414,3.353516c0,2.047852-1.460938,3.300781-3.274414,3.300781s-3.274414-1.25293-3.274414-3.300781ZM152.057366,31.242338c0-1.669922-1.1875-2.75293-2.648438-2.75293-1.461914,0-2.648438,1.083008-2.648438,2.75293s1.186523,2.673828,2.648438,2.673828c1.460938,0,2.648438-1.003906,2.648438-2.673828Z"/>
    <path class="st0" d="M154.754632,28.00601l.026367,1.148438c.404297-.874023,1.317383-1.212891,2.139648-1.212891.482422-.013672.952148.117188,1.382812.37793l-.287109.521484c-.338867-.208008-.717773-.299805-1.095703-.299805-1.200195.013672-2.126953.978516-2.126953,2.152344v3.757812h-.638672v-6.445312h.599609Z"/>
    <path class="st0" d="M168.817132,34.451322v-3.861328c0-1.240234-.834961-2.114258-2.061523-2.114258s-2.074219.914062-2.074219,2.15332v3.822266h-.639648v-3.822266c0-1.239258-.847656-2.139648-2.074219-2.139648s-2.061523.900391-2.061523,2.139648v3.822266h-.638672v-6.445312h.599609l.013672,1.070312c.443359-.847656,1.265625-1.200195,2.100586-1.200195.977539,0,2.008789.443359,2.386719,1.591797.391602-1.056641,1.396484-1.591797,2.387695-1.591797,1.579102,0,2.700195,1.108398,2.700195,2.713867v3.861328h-.638672Z"/>
    <path class="st0" d="M171.891351,25.31851v9.132812h-.638672v-9.132812h.638672Z"/>
    <path class="st0" d="M173.313226,31.228666c0-1.930664,1.460938-3.326172,3.274414-3.326172s3.430664,1.108398,3.183594,3.626953h-5.805664c.129883,1.512695,1.291016,2.386719,2.62207,2.386719.847656,0,1.839844-.338867,2.322266-.978516l.456055.365234c-.625977.822266-1.748047,1.240234-2.77832,1.240234-1.813477,0-3.274414-1.265625-3.274414-3.314453ZM179.197015,30.967924c-.013672-1.591797-1.056641-2.478516-2.609375-2.478516-1.331055,0-2.478516.900391-2.62207,2.478516h5.231445Z"/>
    <path class="st0" d="M185.848382,29.180815c-.652344-.574219-1.291992-.678711-2.009766-.678711-1.003906-.012695-1.969727.365234-1.943359,1.1875.025391.861328,1.147461,1.030273,1.957031,1.173828,1.147461.196289,2.726562.391602,2.661133,1.891602-.039062,1.421875-1.513672,1.800781-2.648438,1.800781s-2.256836-.430664-2.818359-1.291992l.469727-.416992c.535156.769531,1.500977,1.095703,2.361328,1.095703.783203,0,1.970703-.208984,2.009766-1.226562.025391-.925781-1.043945-1.108398-2.100586-1.27832-1.25293-.208984-2.492188-.443359-2.504883-1.735352-.013672-1.265625,1.251953-1.813477,2.556641-1.799805.939453,0,1.761719.260742,2.400391.860352l-.390625.417969Z"/>
    <path class="st0" d="M192.356194,29.180815c-.652344-.574219-1.291992-.678711-2.009766-.678711-1.003906-.012695-1.969727.365234-1.943359,1.1875.025391.861328,1.147461,1.030273,1.957031,1.173828,1.147461.196289,2.726562.391602,2.661133,1.891602-.039062,1.421875-1.513672,1.800781-2.648438,1.800781s-2.256836-.430664-2.818359-1.291992l.469727-.416992c.535156.769531,1.500977,1.095703,2.361328,1.095703.783203,0,1.970703-.208984,2.009766-1.226562.025391-.925781-1.043945-1.108398-2.100586-1.27832-1.25293-.208984-2.492188-.443359-2.504883-1.735352-.013672-1.265625,1.251953-1.813477,2.556641-1.799805.939453,0,1.761719.260742,2.400391.860352l-.390625.417969Z"/>
    <path class="st0" d="M198.849358,25.31851v8.467773h5.140625v.665039h-5.844727v-9.132812h.704102Z"/>
    <path class="st0" d="M211.657952,28.00601v6.445312h-.638672v-1.370117c-.625977,1.004883-1.591797,1.474609-2.635742,1.474609-1.799805,0-3.274414-1.356445-3.274414-3.327148,0-1.969727,1.474609-3.300781,3.274414-3.300781,1.043945,0,2.100586.483398,2.635742,1.487305v-1.40918h.638672ZM205.748772,31.228666c0,1.618164,1.173828,2.701172,2.634766,2.701172,3.587891,0,3.587891-5.388672,0-5.388672-1.460938,0-2.634766,1.070312-2.634766,2.6875Z"/>
    <path class="st0" d="M213.887444,25.31851v4.09668c.521484-1.042969,1.56543-1.512695,2.674805-1.512695,1.799805,0,3.235352,1.200195,3.235352,3.326172,0,2.139648-1.421875,3.327148-3.222656,3.327148-1.095703,0-2.152344-.547852-2.6875-1.526367v1.421875h-.625977v-9.132812h.625977ZM213.90014,31.215971c0,1.604492,1.12207,2.713867,2.635742,2.713867,1.448242,0,2.635742-.914062,2.635742-2.701172,0-1.813477-1.1875-2.713867-2.635742-2.713867-1.487305,0-2.635742,1.09668-2.635742,2.701172Z"/>
    <path class="st0" d="M225.782952,29.180815c-.652344-.574219-1.291992-.678711-2.009766-.678711-1.003906-.012695-1.969727.365234-1.943359,1.1875.025391.861328,1.147461,1.030273,1.957031,1.173828,1.147461.196289,2.726562.391602,2.661133,1.891602-.039062,1.421875-1.513672,1.800781-2.648438,1.800781s-2.256836-.430664-2.818359-1.291992l.469727-.416992c.535156.769531,1.500977,1.095703,2.361328,1.095703.783203,0,1.970703-.208984,2.009766-1.226562.025391-.925781-1.043945-1.108398-2.100586-1.27832-1.25293-.208984-2.492188-.443359-2.504883-1.735352-.013672-1.265625,1.251953-1.813477,2.556641-1.799805.939453,0,1.761719.260742,2.400391.860352l-.390625.417969Z"/>
  </g>
  <g>
    <g>
      <path class="st0" d="M128.274263,20.832227c-1.058269.005109-1.990504.543009-2.542467,1.359188-.146097.216031-.465604.216028-.6117-.000004-.551941-.816157-1.484144-1.354049-2.542392-1.359184-1.684879-.008176-3.077219,1.356904-3.100716,3.041639-.024049,1.724381,1.366575,3.129777,3.085423,3.129777,1.063518,0,2.001256-.538089,2.556061-1.356826.14769-.217949.467257-.21795.614948-.000002.554814.818738,1.49255,1.356828,2.556055,1.356828,1.718843,0,3.109436-1.405359,3.085424-3.129709-.02346-1.684731-1.415762-3.049842-3.100637-3.041708Z"/>
      <path class="st0" d="M128.272928,27.598792c-1.059063.005561-1.991776.54469-2.543238,1.362247-.146748.217558-.466408.21452-.613875-.002552-.548159-.806895-1.467585-1.344905-2.509366-1.359434-1.724383-.024051-3.129769,1.366573-3.129769,3.085426,0,1.063511.538081,2.001244,1.356814,2.556049.217955.147695.217956.467269.000002.614965-.818734.554814-1.356816,1.492547-1.356816,2.556051,0,1.718837,1.405353,3.109428,3.129703,3.085418,1.684739-.023459,3.049839-1.415762,3.041709-3.100632-.005118-1.05827-.543002-1.990499-1.359185-2.542466-.216135-.146167-.218358-.464298-.002101-.610285.328038-.221447.611139-.504315.8329-.832089.146994-.217264.466529-.215309.613679.001849.554808.818759,1.492563,1.356863,2.55609,1.356863,1.718852,0,3.109478-1.405405,3.085423-3.129786-.023508-1.685216-1.416614-3.050474-3.101971-3.041624Z"/>
    </g>
    <path class="st0" d="M129.651052,18.902199h-8.330078c-1.803711,0-3.270508,1.466797-3.270508,3.271484v16.057617c0,1.803711,1.466797,3.271484,3.270508,3.271484h5.244141c3.504883,0,6.356445-2.851562,6.356445-6.357422v-12.972656c0-1.803711-1.466797-3.270508-3.270508-3.270508ZM132.550466,35.145363c0,3.300781-2.68457,5.986328-5.985352,5.986328h-5.244141c-1.598633,0-2.899414-1.300781-2.899414-2.901367v-16.057617c0-1.598633,1.300781-2.899414,2.900391-2.899414h8.329102c1.598633,0,2.899414,1.300781,2.899414,2.900391v12.97168Z"/>
    <circle class="st0" cx="128.865262" cy="36.647272" r="1.362249"/>
  </g>
  <metadata>
    <sfw xmlns="http://ns.adobe.com/SaveForWeb/1.0/">
      <slices/>
      <sliceSourceBounds x="30.08" y="-139.5" width="196.37" height="22.6" bottomLeftOrigin="true"/>
    </sfw>
  </metadata>
</svg>