<svg xmlns="http://www.w3.org/2000/svg" viewBox="0 0 256 60" xmlns:v="https://vecta.io/nano"><g fill="#b2b2b2"><path d="M37.808 29.78c.052 2.322-1.436 4.671-4.632 4.671h-3.092v-9.133h3.092c3.093 0 4.58 2.219 4.632 4.462zm-7.019-3.796v7.788h2.387c2.714 0 3.967-2.035 3.928-3.992-.04-1.904-1.292-3.796-3.928-3.796H30.79z"/><use href="#B"/><path d="M46.545 28.006h.704l2.349 5.702 2.349-5.702h.704l-2.7 6.445h-.705l-2.7-6.445z"/><use href="#B" x="14.152"/><use href="#C"/><use href="#D"/><path d="M71.598 37.139v-9.133h.626v1.527c.509-.979 1.539-1.618 2.792-1.618 1.748.065 3.131 1.239 3.131 3.313 0 2.166-1.461 3.34-3.274 3.34-1.096 0-2.113-.535-2.661-1.604v4.175h-.613zm5.91-5.91c0-1.813-1.175-2.7-2.636-2.7-1.5 0-2.609 1.135-2.609 2.714s1.135 2.713 2.609 2.713c1.461 0 2.636-.913 2.636-2.727z"/><use href="#B" x="40.157"/><path d="M93.641 25.319v9.133h-.626v-1.422c-.535.979-1.592 1.526-2.687 1.526-1.801 0-3.223-1.187-3.223-3.327 0-2.126 1.436-3.326 3.235-3.326 1.109 0 2.152.47 2.675 1.513v-4.097h.626zm-5.91 5.91c0 1.787 1.188 2.701 2.636 2.701 1.514 0 2.635-1.109 2.635-2.714s-1.147-2.701-2.635-2.701c-1.448 0-2.636.9-2.636 2.714z"/><use href="#E"/><path d="M112.394 28.006l-3.927 9.133h-.678l1.187-2.766-2.583-6.367h.691l1.5 3.81.757 1.866.744-1.879 1.617-3.797h.691zm27.167 1.657h5.258v.665h-5.258v4.136h-.704v-9.146h6.145v.705h-5.44v3.64z"/><use href="#D" x="82.557"/><path d="M154.755 28.006l.026 1.148c.404-.874 1.317-1.213 2.14-1.213a2.51 2.51 0 0 1 1.383.378l-.287.521a2.08 2.08 0 0 0-1.096-.3 2.14 2.14 0 0 0-2.127 2.152v3.758h-.639v-6.445h.6zm14.062 6.445V30.59c0-1.24-.835-2.114-2.062-2.114s-2.074.914-2.074 2.153v3.822h-.64v-3.822c0-1.239-.848-2.14-2.074-2.14s-2.062.9-2.062 2.14v3.822h-.639v-6.445h.6l.014 1.07c.443-.848 1.266-1.2 2.101-1.2.978 0 2.009.443 2.387 1.592.392-1.057 1.396-1.592 2.388-1.592 1.579 0 2.7 1.108 2.7 2.714v3.861h-.639z"/><use href="#C" x="109.8"/><use href="#B" x="134.125"/><use href="#F"/><use href="#F" x="6.508"/><path d="M198.849 25.319v8.468h5.141v.665h-5.845v-9.133h.704zm12.809 2.687v6.445h-.639v-1.37a3.01 3.01 0 0 1-2.636 1.475c-1.8 0-3.274-1.356-3.274-3.327s1.475-3.301 3.274-3.301c1.044 0 2.101.483 2.636 1.487v-1.409h.639zm-5.909 3.223c0 1.618 1.174 2.701 2.635 2.701 3.588 0 3.588-5.389 0-5.389-1.461 0-2.635 1.07-2.635 2.688z"/><use href="#E" x="114.196"/><use href="#F" x="39.935"/><path d="M128.274 20.832a3.08 3.08 0 0 0-2.542 1.359.37.37 0 0 1-.612 0 3.08 3.08 0 0 0-2.542-1.359 3.1 3.1 0 0 0-3.101 3.042c-.024 1.724 1.367 3.13 3.085 3.13a3.08 3.08 0 0 0 2.556-1.357.37.37 0 0 1 .615 0c.555.819 1.493 1.357 2.556 1.357 1.719 0 3.109-1.405 3.085-3.13-.023-1.685-1.416-3.05-3.101-3.042zm-.001 6.767c-1.059.006-1.992.545-2.543 1.362a.37.37 0 0 1-.614-.003c-.548-.807-1.468-1.345-2.509-1.359-1.724-.024-3.13 1.367-3.13 3.085a3.08 3.08 0 0 0 1.357 2.556.37.37 0 0 1 0 .615c-.819.555-1.357 1.493-1.357 2.556 0 1.719 1.405 3.109 3.13 3.085 1.685-.023 3.05-1.416 3.042-3.101a3.08 3.08 0 0 0-1.359-2.542.37.37 0 0 1-.002-.61 3.1 3.1 0 0 0 .833-.832.37.37 0 0 1 .614.002c.555.819 1.493 1.357 2.556 1.357 1.719 0 3.109-1.405 3.085-3.13a3.1 3.1 0 0 0-3.102-3.042zm1.378-8.697h-8.33c-1.804 0-3.271 1.467-3.271 3.271v16.058c0 1.804 1.467 3.271 3.271 3.271h5.244c3.505 0 6.356-2.852 6.356-6.357V22.173c0-1.804-1.467-3.271-3.271-3.271zm2.899 16.243c0 3.301-2.685 5.986-5.985 5.986h-5.244c-1.599 0-2.899-1.301-2.899-2.901V22.173c0-1.599 1.301-2.899 2.9-2.899h8.329c1.599 0 2.899 1.301 2.899 2.9v12.972z"/><circle cx="128.865" cy="36.647" r="1.362"/></g><defs ><path id="B" d="M39.188 31.229c0-1.931 1.461-3.326 3.274-3.326s3.431 1.108 3.184 3.627h-5.806c.13 1.513 1.291 2.387 2.622 2.387.848 0 1.84-.339 2.322-.979l.456.365c-.626.822-1.748 1.24-2.778 1.24-1.813 0-3.274-1.266-3.274-3.314zm5.884-.261c-.014-1.592-1.057-2.479-2.609-2.479-1.331 0-2.479.9-2.622 2.479h5.231z"/><path id="C" d="M62.091 25.319v9.133h-.639v-9.133h.639z"/><path id="D" d="M63.578 31.242c0-2.049 1.461-3.354 3.274-3.354s3.274 1.305 3.274 3.354-1.461 3.301-3.274 3.301-3.274-1.253-3.274-3.301zm5.923 0c0-1.67-1.187-2.753-2.648-2.753s-2.648 1.083-2.648 2.753 1.187 2.674 2.648 2.674 2.648-1.004 2.648-2.674z"/><path id="E" d="M99.691 25.319v4.097c.521-1.043 1.565-1.513 2.675-1.513 1.8 0 3.235 1.2 3.235 3.326 0 2.14-1.422 3.327-3.223 3.327-1.096 0-2.152-.548-2.687-1.526v1.422h-.626v-9.133h.626zm.013 5.897c0 1.604 1.122 2.714 2.636 2.714 1.448 0 2.636-.914 2.636-2.701 0-1.813-1.187-2.714-2.636-2.714-1.487 0-2.636 1.097-2.636 2.701z"/><path id="F" d="M185.848 29.181c-.652-.574-1.292-.679-2.01-.679-1.004-.013-1.97.365-1.943 1.188.025.861 1.147 1.03 1.957 1.174 1.147.196 2.727.392 2.661 1.892-.039 1.422-1.514 1.801-2.648 1.801s-2.257-.431-2.818-1.292l.47-.417c.535.77 1.501 1.096 2.361 1.096.783 0 1.971-.209 2.01-1.227.025-.926-1.044-1.108-2.101-1.278-1.253-.209-2.492-.443-2.505-1.735-.014-1.266 1.252-1.813 2.557-1.8.939 0 1.762.261 2.4.86l-.391.418z"/></defs></svg>