<svg xmlns="http://www.w3.org/2000/svg" viewBox="0 0 32 32" xmlns:v="https://vecta.io/nano"><path d="M30.63 9.34V8.03h-5.36V4.04h-1.31V2.73h-1.31V1.36H9.32v1.37H8.01v1.31H6.7v3.99H1.37v1.31H.06v1.37h1.31v1.31h1.37v1.31h2.62v2.68H4.05v10.65H2.74v1.31H1.37v1.31h1.37v1.37h6.6v-1.37h3.99v1.37h5.36v-1.37h3.99v1.37h6.6v-1.37h1.37v-1.31h-1.37v-1.31h-1.31c-.06-3.55.05-7.1 0-10.65h-1.31v-2.68h2.62v-1.31h1.37v-1.31c.43-.01.87 0 1.31 0V9.34h-1.31z" fill="#59fcb3"/><g fill="#092117"><path d="M30.63 9.34v1.37h-1.37v1.31c-1.33.02-2.66-.02-3.99 0v3.99h1.37v10.65h1.31v1.31h1.31v1.31h-6.6v-1.31h-3.99v-1.31h1.31v-1.37h1.31v-1.31h1.37V21.3h1.31v-1.31h1.31v-1.31h-1.31v-3.99h-1.31v-2.68h-1.37v1.31c-.87.01-1.75-.01-2.62 0v-1.31h-5.36v1.31c-.87-.01-1.74.01-2.62 0v-1.31H9.32v2.68H8.01v3.99H6.7v1.31h1.31v1.31h1.31v2.68h1.37v1.31H12v1.37h1.31v1.31h5.36v1.31h-5.36v-1.31H9.32v1.31h-6.6v-1.31h1.31v-1.31h1.31V16.01h1.37v-3.99c-1.33-.02-2.66.02-3.99 0v-1.31H1.35V9.34h29.27zm-17.31 3.98h1.37v1.37c-.46 0-.91-.01-1.37 0v-1.37z"/><path d="M18.68 13.32v1.37c-.46-.01-.91 0-1.37 0v-1.37h1.37zm3.98-10.58v1.31h1.31v3.99H8.03V4.05h1.31V2.74h13.33zM12.01 19.99v1.31H10.7v-1.31h1.31zm5.3 0v1.31h-2.62v-1.31h2.62zm3.98 0v1.31h-1.31v-1.31h1.31z"/><path d="M14.69 21.29v1.37h2.62v-1.37h2.68v1.37h-2.68v3.99h-2.62v-3.99h-2.68v-1.37h2.68zm6.6-5.29v1.31c-.87-.01-1.75.01-2.62 0V16h2.62zm-7.97 0v1.31c-.87.01-1.75-.01-2.62 0V16h2.62z"/></g><path d="M23.97 8.03v1.31c-5.31-.01-10.63 0-15.94 0V8.03h15.94zm-2.68 5.29v-1.31h1.37v2.68h1.31v3.99h1.31v1.31h-1.31v1.31h-1.31v2.68c-.46 0-.92-.01-1.37 0v1.31h-1.31v1.37h-1.31v1.31H17.3v-1.31h1.37v-1.37h1.31v-1.31h1.31V21.3h1.37v-1.31h1.31v-1.31h-1.31v-1.37h-1.37V16h1.37v-1.31c-.46-.01-.92 0-1.37 0v-1.37zM9.34 14.69v-2.68h1.37v1.31 1.37c-.46 0-.92-.01-1.37 0V16h1.37v1.31H9.34v1.37H8.03v1.31h1.31v1.31h1.37v2.68h1.31v1.31h1.31v1.37h1.37v1.31h-1.37v-1.31h-1.31v-1.37h-1.31v-1.31c-.46-.01-.92 0-1.37 0V21.3H8.03v-1.31H6.72v-1.31h1.31v-3.99h1.31z" fill="#1f6e4e"/><g fill="#33db98"><path d="M17.31 18.68h-2.62v1.31h2.62v-1.31z"/><path d="M13.32 19.99v1.31h1.37v-1.31h-1.37zm3.99 0v1.31h1.37v-1.31h-1.37zm-6.6 0v-1.31h1.31v1.31h-1.31v1.31H9.34v-1.31h1.37zm9.28 0v-1.31h1.31v1.31h1.37v1.31H21.3v-1.31h-1.31zm-1.31-5.3h1.31V16h-1.31v1.31h-1.37V16h1.37v-1.31zm-5.36 0V16h1.37v1.31h-1.37V16h-1.31v-1.31h1.31zm3.99 11.96v1.31h-2.62v-1.31h2.62z"/><path d="M17.31 21.29v1.37h-2.62v-1.37h2.62z"/></g><g fill="#59fcb3"><path d="M9.34 2.74V1.37h13.33v1.37h1.31v1.31h1.31v3.99h5.36v1.31h1.31v1.37h-1.31v1.31h-1.37v1.31h-2.62v2.68h1.31v10.65h1.31v1.31h1.37v1.31h-1.37v-1.31c-.43-.01-.87 0-1.31 0v-1.31h-1.31V16.02c-.46-.01-.91 0-1.37 0v-3.99h3.99v-1.31h1.37V9.35c-2.22-.04-4.44 0-6.66 0V4.06h-1.31V2.75H9.35v1.31H8.04v5.29H1.37v1.37h1.37v1.31h3.99v3.99c-.46 0-.91-.01-1.37 0v10.65H4.05v1.31c-.43 0-.87-.01-1.31 0v1.31h6.6v-1.31h3.99v1.31h5.36v-1.31h3.99v1.31h6.6v1.37h-6.6v-1.37h-3.99v1.37h-5.36v-1.37H9.34v1.37h-6.6v-1.37H1.37v-1.31h1.37v-1.31h1.31c.06-3.55-.05-7.1 0-10.65h1.31v-2.68H2.74v-1.31H1.37v-1.31H.06V9.35h1.31V8.04h5.36V4.05h1.31V2.74h1.31zm3.98 10.58v-1.31h5.36v1.31h-1.37v1.37h1.37v-1.37h2.62v1.37h1.37V16h-2.68v-1.31h-1.31V16h-1.37v1.31h5.36v1.37h1.31v1.31H21.3v-1.31h-1.31v2.62h-1.31v-1.31h-1.37v-1.31h-2.62v1.31h-1.37v1.31h-1.31v-1.31-1.31H10.7v1.31H9.33 8.02v-1.31h1.31v-1.37h5.36V16h-1.37v-1.31h-1.31V16H9.33v-1.31h1.37v-1.37h2.62v1.37h1.37v-1.37h-1.37z"/><path d="M12.01 21.29v1.37h2.68v3.99h-1.37v-1.37h-1.31v-1.31H10.7v-2.68h1.31zm9.28 0v2.68h-1.31v1.31h-1.31v1.37H17.3v-3.99h2.68v-1.37h1.31z"/></g></svg>