<?xml version="1.0" encoding="UTF-8"?>
<svg id="Layer_1" xmlns="http://www.w3.org/2000/svg" version="1.1" viewBox="0 0 22 24">
  <!-- Generator: Adobe Illustrator 30.2.1, SVG Export Plug-In . SVG Version: 2.1.1 Build 1)  -->
  <defs>
    <style>
      .st0 {
        fill: none;
        stroke: #030303;
        stroke-linecap: round;
        stroke-linejoin: round;
        stroke-width: 2px;
      }
    </style>
  </defs>
  <path class="st0" d="M18,10.5v-3.7c0-1.68,0-2.52-.327-3.162-.288-.564-.747-1.023-1.311-1.311-.642-.327-1.482-.327-3.162-.327h-6.4c-1.68,0-2.52,0-3.162.327-.564.288-1.023.747-1.311,1.311-.327.642-.327,1.482-.327,3.162v10.4c0,1.68,0,2.52.327,3.162.288.565.747,1.023,1.311,1.311.642.327,1.482.327,3.162.327h2.7M20,22l-1.5-1.5M19.5,18c0,1.933-1.567,3.5-3.5,3.5s-3.5-1.567-3.5-3.5,1.567-3.5,3.5-3.5,3.5,1.567,3.5,3.5Z"/>
</svg>
