<svg xmlns="http://www.w3.org/2000/svg" viewBox="0 0 129 35" xmlns:v="https://vecta.io/nano"><path d="M64.69 28.47V16.12h-3.5V12.5H72.1v3.62h-3.5v12.35h-3.92zm-28.64-7.92c0-4.96 3.79-8.35 8.58-8.35 2.88 0 5.49 1.17 7.16 3.67l-3.45 1.8c-.93-1.27-2.14-1.95-3.67-1.95-2.69 0-4.58 2.1-4.58 4.85s2.06 4.81 4.45 4.81c1.97 0 3.39-1.19 3.64-2.75v-.02h-3.35V19.6h7.73v.68c0 5.21-3.11 8.48-8.07 8.48-4.68 0-8.45-3.37-8.45-8.2zm19.21 7.92V12.49h3.92v15.98h-3.92zm51.4 0V12.49h3.92v15.98h-3.92zm18.51-15.97H129v15.98h-3.18l-8.01-10.06.06 10.06h-3.86V12.5h3.26l8.01 10-.13-10h0zM81.61 25.13c-2.44 0-4.49-1.91-4.49-4.64 0-2.58 1.97-4.64 4.53-4.64 1.26 0 2.37.48 3.17 1.27a10.87 10.87 0 0 1 1.79-3.42c-1.4-.94-3.11-1.47-4.94-1.47-4.7 0-8.6 3.52-8.6 8.24 0 4.96 3.92 8.28 8.54 8.28 1.84 0 3.56-.52 4.97-1.43-.79-1.03-1.39-2.19-1.77-3.45-.81.79-1.93 1.26-3.2 1.26zm14.05-12.91c-2.95 0-5.59 1.39-7.14 3.59-.92 1.31-1.46 2.9-1.46 4.66s.54 3.45 1.45 4.76c1.55 2.21 4.18 3.53 7.09 3.53 4.73 0 8.62-3.39 8.62-8.24s-3.88-8.28-8.56-8.28zm-.07 12.91c-2.44 0-4.49-1.91-4.49-4.64 0-2.58 1.97-4.64 4.53-4.64s4.53 2.03 4.53 4.66-1.97 4.62-4.58 4.62h0z" fill="#fff"/><path d="M27.63,20.65c0,1.9-.43,3.69-1.19,5.3l-1.66-1.04-.78-.49c.5-1.16.78-2.43.78-3.77s-.28-2.62-.78-3.77l.78-.49,1.66-1.04c.77,1.61,1.19,3.4,1.19,5.3Z" fill="#09e3af"/><path d="M24.77 23.27l-.78-.49L21 20.91c-.17-.11-.26-.32-.21-.52a5.75 5.75 0 0 0 0-2.78c-.05-.2.04-.41.21-.52l2.99-1.87 2.44-1.52 1.68-1.05a.95.95 0 0 0 .32-1.28l-.27-.44c-.25-.4-.53-.8-.82-1.17a15.22 15.22 0 0 0-11.88-5.97c-.13 0-.24-.11-.24-.24V1.43A1.43 1.43 0 0 0 13.79 0a1.43 1.43 0 0 0-1.43 1.43v2.45c0 .11-.08.21-.19.23-.81.16-1.59.39-2.34.68-.16.06-.32-.06-.32-.22V1.43A1.43 1.43 0 0 0 8.08 0a1.43 1.43 0 0 0-1.43 1.43v4.76c0 .16-.08.3-.2.39C2.57 9.32.02 13.84 0 18.96c-.03 8.39 6.94 15.26 15.36 15.26h11.32a.95.95 0 0 0 .95-.95v-7.56a1.19 1.19 0 0 0-.56-1.01l-.63-.39-1.66-1.04zm-.48 8.09h-8.94c-6.82 0-12.5-5.57-12.49-12.37 0-3.4 1.38-6.47 3.61-8.7.08-.08.2-.02.2.08v1.5a1.43 1.43 0 1 0 2.86 0V8.33c0-.18.1-.35.27-.43 1.64-.81 3.49-1.26 5.45-1.26a12.39 12.39 0 0 1 9.32 4.21.48.48 0 0 1-.11.72l-1.98 1.24-2.71 1.69a.95.95 0 0 1-1.08-.05c-.97-.73-2.17-1.16-3.48-1.15-3.1.02-5.64 2.53-5.68 5.62a5.71 5.71 0 0 0 5.72 5.79c1.3 0 2.49-.43 3.45-1.16.31-.24.74-.25 1.07-.04l2.71 1.69 2.02 1.26c.17.11.28.3.28.5v3.93a.48.48 0 0 1-.48.48h0zM18.1 18.91v.2c-.02.52-.17 1-.43 1.41a2.99 2.99 0 0 1-1.08 1.01 2.89 2.89 0 0 1-1.34.33c-1.58 0-2.86-1.28-2.86-2.85s1.28-2.85 2.86-2.85c.49 0 .94.12 1.34.33.44.24.82.58 1.08 1.01.26.41.41.89.43 1.41z" fill="#fff"/></svg>