<svg xmlns="http://www.w3.org/2000/svg" width="126" height="126" fill="none" xmlns:v="https://vecta.io/nano"><circle cx="63" cy="63" r="61.5" fill="#0a0a0a" stroke="#060606" stroke-width="3"/><path d="M80.621 73.725c4.165 2.092 7.736 5.45 10.343 9.649.516.832.774 1.247.863 1.823.181 1.17-.619 2.608-1.708 3.072-.536.228-1.139.228-2.346.228M74.899 61.41c4.239-2.106 7.152-6.481 7.152-11.536s-2.913-9.429-7.152-11.536m-5.722 11.536c0 7.11-5.764 12.874-12.874 12.874s-12.874-5.764-12.874-12.874S49.193 37 56.303 37s12.874 5.764 12.874 12.874zM36.446 82.598c4.561-6.848 11.759-11.267 19.857-11.267S71.598 75.75 76.16 82.598c.999 1.501 1.499 2.251 1.441 3.209-.045.746-.534 1.66-1.13 2.111-.766.579-1.819.579-3.925.579H40.06c-2.106 0-3.159 0-3.925-.579-.596-.451-1.085-1.364-1.13-2.111-.057-.958.442-1.708 1.441-3.209z" stroke="#59fcb3" stroke-width="6" stroke-linecap="round" stroke-linejoin="round"/></svg>