<svg xmlns="http://www.w3.org/2000/svg" viewBox="0 0 32 32" xmlns:v="https://vecta.io/nano"><defs><linearGradient id="A" x1="16" y1="35.576" x2="16" y2="17.64" gradientUnits="userSpaceOnUse"><stop offset="0" stop-color="#2b976c"/><stop offset=".5" stop-color="#33db98"/><stop offset="1" stop-color="#59fcb3"/></linearGradient></defs><path d="M7.056 31.653a2.87 2.87 0 0 1-2.106-.876 2.87 2.87 0 0 1-.876-2.106V13.764a2.87 2.87 0 0 1 .876-2.106 2.87 2.87 0 0 1 2.106-.876h1.491V7.801a7.18 7.18 0 0 1 2.18-5.273A7.18 7.18 0 0 1 16 .347a7.18 7.18 0 0 1 5.273 2.18 7.18 7.18 0 0 1 2.18 5.273v2.981h1.491a2.87 2.87 0 0 1 2.106.876 2.87 2.87 0 0 1 .876 2.106v14.907a2.87 2.87 0 0 1-.876 2.106 2.87 2.87 0 0 1-2.106.876H7.056zm0-2.981h17.889V13.764H7.056v14.907zM16 24.199a2.87 2.87 0 0 0 2.106-.876 2.87 2.87 0 0 0 .876-2.106 2.87 2.87 0 0 0-.876-2.106A2.87 2.87 0 0 0 16 18.236a2.87 2.87 0 0 0-2.106.876 2.87 2.87 0 0 0-.876 2.106 2.87 2.87 0 0 0 .876 2.106 2.87 2.87 0 0 0 2.106.876zm-4.472-13.416h8.944V7.801a4.31 4.31 0 0 0-1.304-3.168A4.31 4.31 0 0 0 16 3.329a4.31 4.31 0 0 0-3.168 1.304 4.31 4.31 0 0 0-1.304 3.168v2.981zM7.056 28.671V13.764v14.907z" fill="url(#A)"/></svg>