<?xml version="1.0" encoding="UTF-8"?>
<svg id="Layer_1" xmlns="http://www.w3.org/2000/svg" version="1.1" xmlns:xlink="http://www.w3.org/1999/xlink" viewBox="0 0 32 32">
  <!-- Generator: Adobe Illustrator 30.1.0, SVG Export Plug-In . SVG Version: 2.1.1 Build 136)  -->
  <defs>
    <style>
      .st0 {
        fill: url(#radial-gradient);
      }

      .st1 {
        fill: #fcffff;
      }
    </style>
    <radialGradient id="radial-gradient" cx="20.2" cy="3.55" fx="20.2" fy="3.55" r="15.8" gradientUnits="userSpaceOnUse">
      <stop offset="0" stop-color="#59fcb3"/>
      <stop offset=".5" stop-color="#33db98"/>
      <stop offset="1" stop-color="#2b976c"/>
    </radialGradient>
  </defs>
  <circle class="st0" cx="16" cy="9.48" r="8.37"/>
  <path class="st1" d="M31.9,24.76c-.09-.67-.71-1.14-1.38-1.04-.67.09-1.14.71-1.04,1.38.18,1.28-2.17,2.39-4.08,2.99v-10.39s.95-.33.95-.33l1.1-.38c.63-.22,1.19-.47,1.69-.78,1.84-1.12,2.12-2.34,2.03-3.17-.26-2.4-3.91-3.83-5.02-4.21-.12-.04-.24-.06-.37-.07.02.24.03.48.03.72,0,.6-.06,1.19-.16,1.77,1.15.43,2.26,1.08,2.79,1.59.25.24.24.64-.01.87-.13.12-.31.26-.55.41-.35.21-.75.39-1.21.55-.58.2-1.19.35-1.77.54-.28.09-.56.2-.83.32-.58.25-1.11.57-1.11,1.28v10.33c-1.1-.86-2.19-1.72-3.29-2.58-2.15-1.69-4.29-3.37-6.44-5.06-1.48-1.16-2.95-2.35-4.45-3.5-.94-.72-2.34-.96-3.45-1.34-.46-.16-.86-.34-1.21-.55-.24-.15-.42-.29-.55-.41-.25-.23-.26-.63-.01-.87.52-.51,1.64-1.16,2.79-1.59-.1-.57-.16-1.16-.16-1.77,0-.24.01-.48.03-.72-.12,0-.24.02-.37.07-1.11.38-4.76,1.81-5.02,4.21-.09.83.19,2.05,2.03,3.17.5.31,1.05.56,1.69.78l2.06.71v10.39c-1.89-.59-4.22-1.68-4.09-2.96.05-.51-.14-1.02-.59-1.26-.82-.44-1.71.08-1.82.9-.6,4.37,6.66,5.94,7.49,6.1.08.02.16.02.24.02.4,0,.79-.2,1.02-.55.14-.21.2-.46.2-.71v-10.29c1.08.85,2.16,1.7,3.24,2.55,2.13,1.67,4.25,3.34,6.38,5.01,1.5,1.18,2.99,2.37,4.5,3.54.31.24.61.45,1.04.44,1.26-.03,2.76-.68,3.89-1.2,1.3-.59,2.66-1.42,3.38-2.7.38-.67.53-1.45.42-2.21Z"/>
</svg>