<svg xmlns="http://www.w3.org/2000/svg" viewBox="0.333 0 87 100" xmlns:v="https://vecta.io/nano"><linearGradient id="A" gradientUnits="userSpaceOnUse" x1="9.2" y1="53.042" x2="78.722" y2="53.042"><stop offset="0" stop-color="#2a1b42"/><stop offset="1" stop-color="#4d3077"/></linearGradient><path fill="url(#A)" d="M9.64 14.96c-.28.38-.44.84-.44 1.32v47.48c0 11.12 23.3 22.9 33.94 27.2a2.12 2.12 0 0 0 1.64 0c6.08-2.44 16.26-7.319 23.86-13.12.6-.46 1.22-.92 1.78-1.4 2-1.64 3.76-3.34 5.14-5.08-31.54-3.98-57.28-26.56-65.92-56.4z"/><linearGradient id="B" gradientUnits="userSpaceOnUse" x1="9.62" y1="40.119" x2="78.7" y2="40.119"><stop offset="0" stop-color="#4d3077"/><stop offset="1" stop-color="#662d91"/></linearGradient><path fill="url(#B)" d="M77.26 68.84c.36-.66.68-1.34.9-2 .26-.76.44-1.5.5-2.26l.04-.76V16.28c0-.14-.02-.26-.04-.4-.04-.26-.14-.5-.26-.72-.06-.12-.14-.22-.22-.32a2.24 2.24 0 0 0-1.34-.74l-1.9-.3-30.62-4.9c-.12-.02-.24-.02-.34-.02-.12 0-.24 0-.34.02L14.2 13.6l-3.16.5a2.29 2.29 0 0 0-1.42.86C18.26 44.8 44 67.359 75.54 71.359c.1-.119.2-.239.3-.379.44-.541 1.24-1.78 1.42-2.14z"/><linearGradient id="C" gradientUnits="userSpaceOnUse" x1="43.94" y1="50.01" x2="85.6" y2="50.01"><stop offset="0" stop-color="#4d3077"/><stop offset="1" stop-color="#662d91"/></linearGradient><path fill="url(#C)" d="M80.22 7.16L44.98 1.54c-.34-.06-.68-.08-1.02-.08h-.02v4.02h.02c.12 0 .26 0 .38.04l35.22 5.64a2.39 2.39 0 0 1 2.02 2.36v51.46c0 1.1-.2 2.18-.58 3.279a14.68 14.68 0 0 1-.98 2.16 32.67 32.67 0 0 1-1.54 2.34c-1.54 2.02-3.56 4-5.88 5.9l-1.92 1.5c-8.24 6.279-19.26 11.561-25.84 14.199a2.22 2.22 0 0 1-.88.181h0v4.021h0a6.44 6.44 0 0 0 2.38-.461c7.62-3.08 18.66-8.56 26.78-14.74.02-.02.04-.02.04-.039.2-.16.4-.32.62-.48l1.38-1.1c2.68-2.18 4.86-4.4 6.52-6.58.58-.76 1.56-2.28 1.86-2.82.52-.92.94-1.859 1.26-2.779.54-1.541.8-3.08.8-4.601V13.5c0-3.18-2.26-5.82-5.38-6.34z"/><linearGradient id="D" gradientUnits="userSpaceOnUse" x1="2.28" y1="49.99" x2="43.96" y2="49.99"><stop offset="0" stop-color="#2a1b42"/><stop offset="1" stop-color="#4d3077"/></linearGradient><path fill="url(#D)" d="M43.72 94.52c-.22-.02-.44-.08-.66-.16C31.54 89.7 6.3 76.96 6.3 64.9V13.5a2.39 2.39 0 0 1 2.02-2.36l3.42-.54L43.6 5.5c.04 0 .26-.02.36-.02V1.46a9.63 9.63 0 0 0-.98.08L11.1 6.62l-3.42.54c-3.12.5-5.4 3.16-5.4 6.32V64.9c0 3.8 1.72 7.72 5.1 11.64 2.58 3 6.18 6.08 10.72 9.16 9.64 6.56 20.38 11.12 23.44 12.36a6.26 6.26 0 0 0 2.16.459h.22V94.5c-.04.04-.12.04-.2.02z"/><path d="M81.6 13.5a2.39 2.39 0 0 0-2.02-2.36L44.36 5.5a2.45 2.45 0 0 0-.38-.04h-.02c-.1 0-.32.02-.36.02l-31.86 5.1-3.42.54a2.39 2.39 0 0 0-2.02 2.36V64.9c0 12.039 25.24 24.8 36.76 29.459.22.08.44.141.66.16.08 0 .16.021.22.021h0a2.22 2.22 0 0 0 .88-.181c6.58-2.639 17.6-7.92 25.84-14.199.64-.5 1.32-1 1.92-1.5 2.32-1.9 4.34-3.881 5.88-5.9.46-.619 1.32-1.96 1.54-2.34a14.68 14.68 0 0 0 .98-2.16 9.86 9.86 0 0 0 .58-3.279V13.5h.04zm-2.88 50.3c0 .261-.02.5-.04.761a9.95 9.95 0 0 1-.5 2.26 13.65 13.65 0 0 1-.9 2 30.14 30.14 0 0 1-1.42 2.16c-1.42 1.859-3.28 3.699-5.44 5.459-.54.461-1.18.92-1.78 1.4-7.6 5.801-17.8 10.68-23.86 13.12a2.28 2.28 0 0 1-.82.16 2.3 2.3 0 0 1-.82-.16C32.5 86.66 9.2 74.9 9.2 63.76V16.28a2.21 2.21 0 0 1 1.86-2.18l3.14-.5 29.42-4.7c.12-.02.24-.02.34-.02a1.83 1.83 0 0 1 .34.02l30.66 4.9 1.9.3a2.24 2.24 0 0 1 1.34.74c.08.1.16.2.22.32.12.22.22.46.26.72.02.12.04.26.04.4V63.8zM46.56 39.84a2.46 2.46 0 1 0 0-4.92h-19c-.2 0-.34.16-.34.34v2.12c0 1.32 1.04 2.4 2.34 2.48-.02 0 17-.02 17-.02zm4.68-19.3h0-20.12c-.2 0-.34.16-.34.34V23c0 1.32 1.04 2.4 2.34 2.48l17.1-.04h0a39.99 39.99 0 0 1 1.22.02c6.3.3 11.32 5.54 11.32 11.92a11.87 11.87 0 0 1-11.5 11.86h0-18c-.12 0-.24 0-.36.021a2.45 2.45 0 0 0-2.08 2.259v24.3c0 .199.16.34.34.34h2.12c1.32 0 2.4-1.04 2.48-2.34V54.5v-.02c0-.16.16-.301.32-.301l15.54-.02a17.72 17.72 0 0 0 3.88-.62c7.06-2.021 12.22-8.48 12.22-16.18-.04-9.159-7.36-16.599-16.48-16.819z" fill="#fff"/></svg>