<svg xmlns="http://www.w3.org/2000/svg" viewBox="0 0 1029.74 348.79" xmlns:v="https://vecta.io/nano"><defs><linearGradient id="A" x1="31.47" y1="184.85" x2="270.15" y2="184.85" href="#E"><stop offset="0" stop-color="#2a1b42"/><stop offset="1" stop-color="#4d3077"/></linearGradient><linearGradient id="B" x1="32.97" y1="140.48" x2="270.15" y2="140.48" href="#E"><stop offset="0" stop-color="#4d3077"/><stop offset="1" stop-color="#662d91"/></linearGradient><linearGradient id="C" x1="150.79" y1="174.38" x2="293.81" y2="174.38" href="#E"><stop offset="0" stop-color="#4d3077"/><stop offset="1" stop-color="#662d91"/></linearGradient><linearGradient id="D" x1="7.8" y1="174.4" x2="150.8" y2="174.4" href="#E"><stop offset="0" stop-color="#2a1b42"/><stop offset="1" stop-color="#4d3077"/></linearGradient><linearGradient id="E" gradientUnits="userSpaceOnUse"/></defs><path d="M1018.54 251.43h-42.81a3.38 3.38 0 0 1-2.77-1.43l-40.76-57.55c-1.36-1.92-4.22-1.91-5.56.02l-39.99 57.51a3.42 3.42 0 0 1-2.79 1.46H842.2c-2.75 0-4.36-3.1-2.78-5.35l62.7-89.43c.81-1.16.82-2.7.02-3.87L843.9 67.66c-1.54-2.25.07-5.32 2.8-5.32h41.47a3.41 3.41 0 0 1 2.81 1.48l35.63 52.22c1.35 1.97 4.25 1.98 5.61.01l35.89-52.24c.63-.92 1.68-1.47 2.8-1.47h42.23c2.74 0 4.36 3.08 2.79 5.34l-57.88 83.22a3.4 3.4 0 0 0 0 3.88l63.3 91.33c1.55 2.24-.07 5.32-2.81 5.32zM815.22 62.33h-36.64c-1.43 0-2.7.89-3.19 2.24l-47.85 131.59c-1.09 2.98-5.31 2.98-6.39 0L673.56 64.6a3.39 3.39 0 0 0-3.2-2.24H631.8a3.4 3.4 0 0 0-3.16 4.64l71.76 182.29c.51 1.29 1.77 2.14 3.16 2.14h39.26c1.39 0 2.64-.85 3.16-2.14L818.38 67c.88-2.24-.76-4.66-3.16-4.66zm-259.64 185.7V65.74a3.4 3.4 0 0 1 3.4-3.4h35.89a3.4 3.4 0 0 1 3.4 3.4v182.29a3.4 3.4 0 0 1-3.4 3.4h-35.89a3.4 3.4 0 0 1-3.4-3.4zM443.48 62.34c48.08 0 75.63 23.77 75.63 65.64 0 44.04-27.55 69.43-75.63 69.43h-34.15a3.4 3.4 0 0 0-3.4 3.4v47.23a3.4 3.4 0 0 1-3.4 3.4h-35.89a3.4 3.4 0 0 1-3.4-3.4V65.74a3.4 3.4 0 0 1 3.4-3.4h76.84zm-37.55 96.01a3.4 3.4 0 0 0 3.4 3.4h31.99c23.77 0 37.28-10.81 37.28-32.41s-13.5-31.61-37.28-31.61h-31.99a3.4 3.4 0 0 0-3.4 3.4v57.22z" fill="#fff"/><path d="M32.98 54.12a7.54 7.54 0 0 0-1.51 4.53v163c0 38.2 80.01 78.6 116.51 93.38 1.81.73 3.84.74 5.65.01 20.85-8.4 55.82-25.14 81.94-45.05 2.03-1.59 4.2-3.18 6.08-4.78 6.89-5.62 12.91-11.47 17.63-17.45-108.26-13.73-196.62-91.21-226.3-193.64z" fill="url(#A)"/><path d="M265.18 239.05c1.26-2.28 2.31-4.57 3.11-6.87.9-2.58 1.49-5.18 1.74-7.77l.12-2.6V58.65c0-.47-.04-.92-.12-1.37a7.35 7.35 0 0 0-.93-2.48 7.39 7.39 0 0 0-.76-1.07c-1.14-1.33-2.73-2.27-4.57-2.57l-6.5-1.04-105.2-16.83c-.4-.06-.8-.1-1.2-.1a6.94 6.94 0 0 0-1.2.1l-101 16.15-10.83 1.73a7.55 7.55 0 0 0-4.87 2.95c29.68 102.42 118.04 179.91 226.3 193.65l1.01-1.29c1.49-1.93 4.22-6.21 4.9-7.43z" fill="url(#B)"/><path d="M275.3 27.35L154.36 7.99c-1.15-.18-2.31-.28-3.48-.28h-.09V21.5h.09c.43 0 .87.03 1.3.1l120.94 19.36a8.21 8.21 0 0 1 6.91 8.1v176.67c0 3.75-.71 7.5-2.01 11.23-.87 2.49-2 4.98-3.37 7.44-.73 1.33-3.7 5.96-5.29 8.06-5.26 6.95-12.2 13.76-20.19 20.28-2.04 1.72-4.39 3.45-6.58 5.17-28.28 21.56-66.15 39.69-88.73 48.78a8.27 8.27 0 0 1-3.05.59h-.02v13.78h.02a21.76 21.76 0 0 0 8.2-1.59c26.18-10.54 64.08-29.37 91.93-50.6.05-.04.11-.08.16-.12l2.1-1.63c1.57-1.2 3.19-2.45 4.77-3.78 9.19-7.51 16.72-15.1 22.38-22.57 2-2.64 5.33-7.84 6.36-9.71 1.76-3.18 3.21-6.4 4.32-9.57 1.84-5.29 2.78-10.59 2.78-15.77V49.06a21.89 21.89 0 0 0-18.51-21.71z" fill="url(#C)"/><path d="M150.02 327.25c-.77-.08-1.54-.26-2.27-.56-39.53-16-126.17-59.75-126.17-101.11V49.07a8.2 8.2 0 0 1 6.91-8.1l11.72-1.87 109.38-17.5a17.73 17.73 0 0 1 1.21-.1V7.72c-.51.02-2.58.15-3.38.27L38.04 25.48l-11.72 1.87A21.9 21.9 0 0 0 7.8 49.07v176.51c0 13.03 5.88 26.48 17.48 39.98 8.83 10.28 21.22 20.87 36.8 31.48 33.1 22.53 69.98 38.17 80.49 42.43 2.38.96 4.88 1.49 7.44 1.59l.78.02V327.3c-.25 0-.51-.03-.77-.05z" fill="url(#D)"/><path d="M280.03 49.06a8.2 8.2 0 0 0-6.91-8.1L152.18 21.6c-.43-.07-.86-.1-1.3-.1h-.09a17.73 17.73 0 0 0-1.21.1L40.22 39.09 28.5 40.96a8.21 8.21 0 0 0-6.91 8.1v176.51c0 41.37 86.64 85.11 126.17 101.11.73.3 1.5.48 2.27.56.26.03.52.04.78.04h.02c1.04 0 2.07-.2 3.05-.59 22.58-9.09 60.44-27.22 88.73-48.78 2.19-1.72 4.54-3.45 6.58-5.17 7.99-6.52 14.93-13.33 20.19-20.28 1.59-2.1 4.55-6.73 5.29-8.06 1.36-2.47 2.5-4.95 3.37-7.44 1.3-3.73 2.01-7.48 2.01-11.23V49.06h-.02zm-9.89 172.74a28.27 28.27 0 0 1-.12 2.6c-.24 2.6-.83 5.19-1.74 7.77-.8 2.3-1.85 4.6-3.11 6.87-.68 1.23-3.41 5.5-4.88 7.44-4.86 6.42-11.26 12.71-18.65 18.73-1.88 1.59-4.05 3.18-6.08 4.78-26.12 19.91-61.08 36.65-81.94 45.05a7.61 7.61 0 0 1-2.82.55c-.96 0-1.92-.18-2.83-.55-36.5-14.78-116.51-55.18-116.51-93.38v-163c0-3.72 2.71-6.9 6.38-7.48l10.83-1.73 101-16.15c.4-.06.8-.1 1.2-.1a6.94 6.94 0 0 1 1.2.1l105.19 16.84 6.5 1.04c1.84.29 3.43 1.23 4.57 2.57a7.39 7.39 0 0 1 .76 1.07c.45.76.76 1.59.93 2.48.08.44.12.9.12 1.37V221.8zm-110.39-82.31c4.65 0 8.41-3.78 8.41-8.43s-3.77-8.43-8.43-8.43l-65.25-.02c-.66 0-1.19.53-1.19 1.19v7.28a8.52 8.52 0 0 0 8 8.49l58.46-.08zm16.04-66.21h0c-.5-.01-69.1-.02-69.1-.02-.66 0-1.19.53-1.19 1.19v7.28c0 4.52 3.55 8.23 8.01 8.49l58.7-.13h0a96.4 96.4 0 0 1 4.21.1c21.63 1.05 38.85 19 38.85 40.89s-17.55 40.01-39.48 40.74h0c-.57.01-61.79-.03-61.79-.03a8.52 8.52 0 0 0-1.24.09c-3.88.57-6.9 3.78-7.17 7.75v83.44c0 .66.53 1.19 1.19 1.19h7.28c4.52 0 8.23-3.55 8.49-8.01l.03-66.35v-.05c.03-.58.52-1.03 1.1-1.03l53.35-.04c4.59-.21 9.04-.95 13.29-2.16 24.23-6.91 41.96-29.09 41.96-55.53 0-31.51-25.16-57.08-56.49-57.81z" fill="#fff"/></svg>