<svg version="1.1" xmlns="http://www.w3.org/2000/svg" viewBox="0.333 0 87 100">
<g>
	<g>
		<g>

				<linearGradient id="SVGID_1_" gradientUnits="userSpaceOnUse" x1="1398.9502" y1="1099.2119" x2="1746.5613" y2="1099.2119" gradientTransform="matrix(0.2 0 0 0.2 -270.5901 -166.8001)">
				<stop  offset="0" style="stop-color:#2A1B42"/>
				<stop  offset="1" style="stop-color:#4D3077"/>
			</linearGradient>
			<path fill="url(#SVGID_1_)" d="M9.64,14.96C9.36,15.34,9.2,15.8,9.2,16.28v47.48c0,11.12,23.3,22.9,33.94,27.2
				c0.52,0.22,1.12,0.22,1.64,0c6.08-2.44,16.26-7.319,23.86-13.12c0.6-0.46,1.22-0.92,1.78-1.4c2-1.64,3.76-3.34,5.14-5.08
				C44.02,67.38,18.28,44.8,9.64,14.96z"/>

				<linearGradient id="SVGID_2_" gradientUnits="userSpaceOnUse" x1="1401.0498" y1="1034.5977" x2="1746.4502" y2="1034.5977" gradientTransform="matrix(0.2 0 0 0.2 -270.5901 -166.8001)">
				<stop  offset="0" style="stop-color:#4D3077"/>
				<stop  offset="1" style="stop-color:#662D91"/>
			</linearGradient>
			<path fill="url(#SVGID_2_)" d="M77.26,68.84c0.36-0.66,0.68-1.34,0.9-2c0.26-0.76,0.44-1.5,0.5-2.26
				c0.02-0.26,0.04-0.5,0.04-0.76V16.28c0-0.14-0.02-0.26-0.04-0.4c-0.04-0.26-0.14-0.5-0.26-0.72c-0.06-0.12-0.14-0.22-0.22-0.32
				c-0.34-0.38-0.8-0.66-1.34-0.74l-1.9-0.3L44.32,8.9c-0.12-0.02-0.24-0.02-0.34-0.02c-0.12,0-0.24,0-0.34,0.02L14.2,13.6
				l-3.16,0.5c-0.58,0.1-1.08,0.42-1.42,0.86C18.26,44.8,44,67.359,75.54,71.359c0.1-0.119,0.2-0.239,0.3-0.379
				C76.28,70.439,77.08,69.2,77.26,68.84z"/>
			<g>
				<g>

						<linearGradient id="SVGID_3_" gradientUnits="userSpaceOnUse" x1="1572.6494" y1="1084.0508" x2="1780.9502" y2="1084.0508" gradientTransform="matrix(0.2 0 0 0.2 -270.5901 -166.8001)">
						<stop  offset="0" style="stop-color:#4D3077"/>
						<stop  offset="1" style="stop-color:#662D91"/>
					</linearGradient>
					<path fill="url(#SVGID_3_)" d="M80.22,7.16L44.98,1.54c-0.34-0.06-0.68-0.08-1.02-0.08h-0.02v4.02h0.02
						c0.12,0,0.26,0,0.38,0.04l35.22,5.64c1.16,0.18,2.02,1.18,2.02,2.36v51.46c0,1.1-0.2,2.18-0.58,3.279
						c-0.26,0.721-0.58,1.44-0.98,2.16c-0.22,0.38-1.08,1.74-1.54,2.34c-1.54,2.02-3.56,4-5.88,5.9c-0.6,0.5-1.28,1-1.92,1.5
						c-8.24,6.279-19.26,11.561-25.84,14.199c-0.28,0.121-0.58,0.181-0.88,0.181l0,0v4.021l0,0c0.82,0,1.62-0.16,2.38-0.461
						c7.62-3.08,18.66-8.56,26.78-14.74c0.02-0.02,0.04-0.02,0.04-0.039c0.2-0.16,0.4-0.32,0.62-0.48c0.46-0.359,0.92-0.72,1.38-1.1
						c2.68-2.18,4.86-4.4,6.52-6.58c0.58-0.76,1.56-2.28,1.86-2.82c0.52-0.92,0.94-1.859,1.26-2.779c0.54-1.541,0.8-3.08,0.8-4.601
						V13.5C85.6,10.32,83.34,7.68,80.22,7.16z"/>
				</g>

					<linearGradient id="SVGID_4_" gradientUnits="userSpaceOnUse" x1="1364.3486" y1="1083.9492" x2="1572.749" y2="1083.9492" gradientTransform="matrix(0.2 0 0 0.2 -270.5901 -166.8001)">
					<stop  offset="0" style="stop-color:#2A1B42"/>
					<stop  offset="1" style="stop-color:#4D3077"/>
				</linearGradient>
				<path fill="url(#SVGID_4_)" d="M43.72,94.52c-0.22-0.02-0.44-0.08-0.66-0.16C31.54,89.7,6.3,76.96,6.3,64.9V13.5
					c0-1.18,0.86-2.18,2.02-2.36l3.42-0.54L43.6,5.5c0.04,0,0.26-0.02,0.36-0.02V1.46c-0.14,0-0.76,0.04-0.98,0.08L11.1,6.62
					L7.68,7.16c-3.12,0.5-5.4,3.16-5.4,6.32V64.9c0,3.8,1.72,7.72,5.1,11.64c2.58,3,6.18,6.08,10.72,9.16
					c9.64,6.56,20.38,11.12,23.44,12.36c0.7,0.279,1.42,0.439,2.16,0.459c0.08,0,0.16,0,0.22,0V94.5
					C43.88,94.54,43.8,94.54,43.72,94.52z"/>
			</g>
			<path fill="#FFFFFF" d="M81.6,13.5c0-1.18-0.86-2.18-2.02-2.36L44.36,5.5c-0.12-0.02-0.26-0.04-0.38-0.04h-0.02
				c-0.1,0-0.32,0.02-0.36,0.02l-31.86,5.1l-3.42,0.54C7.16,11.3,6.3,12.3,6.3,13.48V64.9c0,12.039,25.24,24.8,36.76,29.459
				c0.22,0.08,0.44,0.141,0.66,0.16c0.08,0,0.16,0.021,0.22,0.021l0,0c0.3,0,0.6-0.06,0.88-0.181c6.58-2.639,17.6-7.92,25.84-14.199
				c0.64-0.5,1.32-1,1.92-1.5c2.32-1.9,4.34-3.881,5.88-5.9c0.46-0.619,1.32-1.96,1.54-2.34c0.4-0.72,0.72-1.439,0.98-2.16
				c0.38-1.08,0.58-2.18,0.58-3.279V13.5H81.6z M78.72,63.8c0,0.261-0.02,0.5-0.04,0.761c-0.08,0.76-0.24,1.52-0.5,2.26
				c-0.24,0.68-0.54,1.34-0.9,2c-0.2,0.359-1,1.6-1.42,2.16c-1.42,1.859-3.28,3.699-5.44,5.459c-0.54,0.461-1.18,0.92-1.78,1.4
				c-7.6,5.801-17.8,10.68-23.86,13.12c-0.26,0.101-0.54,0.16-0.82,0.16c-0.28,0-0.56-0.06-0.82-0.16C32.5,86.66,9.2,74.9,9.2,63.76
				V16.28c0-1.08,0.78-2,1.86-2.18l3.14-0.5l29.42-4.7c0.12-0.02,0.24-0.02,0.34-0.02c0.12,0,0.24,0,0.34,0.02l30.66,4.9l1.9,0.3
				c0.54,0.08,1,0.36,1.34,0.74c0.08,0.1,0.16,0.2,0.22,0.32c0.12,0.22,0.22,0.46,0.26,0.72c0.02,0.12,0.04,0.26,0.04,0.4V63.8z"/>
			<path fill="#FFFFFF" d="M46.56,39.84c1.36,0,2.46-1.1,2.46-2.46s-1.1-2.46-2.46-2.46h-19c-0.2,0-0.34,0.16-0.34,0.34
				c0,0.68,0,2.1,0,2.12c0,1.32,1.04,2.4,2.34,2.48C29.54,39.86,46.56,39.84,46.56,39.84z"/>
			<path fill="#FFFFFF" d="M51.24,20.54L51.24,20.54c-0.14,0-20.12,0-20.12,0c-0.2,0-0.34,0.16-0.34,0.34c0,0.68,0,2.1,0,2.12
				c0,1.32,1.04,2.4,2.34,2.48c0.02,0,17.1-0.04,17.1-0.04l0,0c0.64,0,1.22,0.02,1.22,0.02c6.3,0.3,11.32,5.54,11.32,11.92
				c0,6.44-5.12,11.66-11.5,11.86l0,0c-0.16,0-18,0-18,0c-0.12,0-0.24,0-0.36,0.021c-1.12,0.16-2,1.1-2.08,2.259V75.82
				c0,0.199,0.16,0.34,0.34,0.34c0.68,0,2.1,0,2.12,0c1.32,0,2.4-1.04,2.48-2.34V54.5v-0.02c0-0.16,0.16-0.301,0.32-0.301
				l15.54-0.02c1.34-0.061,2.64-0.28,3.88-0.62c7.06-2.021,12.22-8.48,12.22-16.18C67.68,28.2,60.36,20.76,51.24,20.54z"/>
		</g>
	</g>
</g>
</svg>
