<svg width="22" height="19" viewBox="0 0 22 19" fill="none" xmlns="http://www.w3.org/2000/svg">
<path d="M18.7479 2.29289C20.1652 4.26312 21 6.68052 21 9.29286C21 11.9053 20.1652 14.3227 18.7479 16.2929M14.7453 5.29289C15.5362 6.42672 16 7.80566 16 9.29286C16 10.7802 15.5362 12.1591 14.7453 13.2929M8.63432 1.65857L5.46863 4.82426C5.29568 4.99721 5.2092 5.08369 5.10828 5.14553C5.01881 5.20036 4.92127 5.24076 4.81923 5.26526C4.70414 5.29289 4.58185 5.29289 4.33726 5.29289H2.6C2.03995 5.29289 1.75992 5.29289 1.54601 5.40188C1.35785 5.49775 1.20487 5.65073 1.10899 5.8389C1 6.05281 1 6.33283 1 6.89289V11.6929C1 12.253 1 12.533 1.10899 12.7469C1.20487 12.9351 1.35785 13.0881 1.54601 13.1839C1.75992 13.2929 2.03995 13.2929 2.6 13.2929H4.33726C4.58185 13.2929 4.70414 13.2929 4.81923 13.3206C4.92127 13.3451 5.01881 13.3855 5.10828 13.4403C5.2092 13.5021 5.29568 13.5886 5.46863 13.7616L8.63431 16.9272C9.0627 17.3556 9.2769 17.5698 9.4608 17.5843C9.6203 17.5968 9.7763 17.5322 9.8802 17.4105C10 17.2703 10 16.9674 10 16.3616V2.22426C10 1.61844 10 1.31553 9.8802 1.17527C9.7763 1.05357 9.6203 0.988985 9.4608 1.00154C9.2769 1.01601 9.0627 1.2302 8.63432 1.65857Z" stroke="#959899" stroke-width="2" stroke-linecap="round" stroke-linejoin="round"/>
</svg>
