<svg xmlns="http://www.w3.org/2000/svg" viewBox="0 0 24 24" xmlns:v="https://vecta.io/nano"><path d="M18.197 8.661c-.347-.381-.938-.408-1.319-.062l-6.097 5.554a.67.67 0 0 1-.345.103c-.167-.002-.327-.065-.449-.177l-.628-.576c-.091-.083-.143-.202-.143-.325v-1.155a.94.94 0 0 0-.901-.941.92.92 0 0 0-.95.925v1.682a1.13 1.13 0 0 0 .366.832l1.951 1.789a1.13 1.13 0 0 0 .756.296c.185-.002.369-.051.525-.137.075-.039.144-.086.205-.141l6.97-6.349c.184-.168.292-.398.304-.647s-.074-.488-.242-.672z" fill="#59fcb3"/><linearGradient id="A" gradientUnits="userSpaceOnUse" x1="4.216" y1="19.865" x2="19.4" y2="4.681"><stop offset="0" stop-color="#2b976c"/><stop offset=".5" stop-color="#33db98"/><stop offset="1" stop-color="#59fcb3"/></linearGradient><path d="M12 .212C5.455.212.131 5.536.131 12.081S5.455 23.95 12 23.95s11.869-5.324 11.869-11.869S18.545.212 12 .212zM1.231 12.081l.002-.182a7.3 7.3 0 0 1 1.558-2.206c.143-.137.239-.314.275-.508a7.6 7.6 0 0 1 5.993-6.02c.194-.037.371-.134.506-.277.577-.608 1.312-1.152 2.204-1.571l.23-.003c5.938 0 10.769 4.831 10.769 10.769a10.92 10.92 0 0 1-.01.439c-.4.801-.902 1.471-1.46 2.006-.143.137-.239.314-.275.508a7.6 7.6 0 0 1-5.993 6.02c-.194.037-.371.134-.506.277-.549.578-1.241 1.098-2.073 1.507-.15.006-.3.01-.451.01-5.938 0-10.769-4.831-10.769-10.769z" fill="url(#A)"/></svg>