<svg xmlns="http://www.w3.org/2000/svg" viewBox="0 0 24 24" xmlns:v="https://vecta.io/nano"><linearGradient id="A" gradientUnits="userSpaceOnUse" x1="12" y1="21.944" x2="12" y2="5.36"><stop offset="0" stop-color="#2b976c"/><stop offset=".5" stop-color="#33db98"/><stop offset="1" stop-color="#59fcb3"/></linearGradient><path d="M23.505 20.99L12.675 2.231a.78.78 0 0 0-1.349 0L.495 20.99a.78.78 0 0 0 .674 1.168h.551 21.111a.78.78 0 0 0 .749-.991l-.075-.177zm-5.822-.389l-.734-.734a.65.65 0 0 0-.46-.191H7.684a.65.65 0 0 0-.46.191l-.734.734H2.518l1.839-3.185.953-.255a.65.65 0 0 0 .395-.303l4.403-7.625a.65.65 0 0 0 .065-.494l-.097-.362v-.002l-.158-.588C9.905 7.739 12 4.178 12 4.178l2.046 3.544-.281 1.312a.65.65 0 0 0 .074.198l4.403 7.625a.65.65 0 0 0 .395.303l1.016.272 1.829 3.168h-3.799z" fill="url(#A)"/><g fill="#59fcb3"><path d="M11.035 10.867l.121 1.758.121 1.589.015.202c.015.183.088.336.219.46a.66.66 0 0 0 .471.186.71.71 0 0 0 .688-.571c.05-.218.042-.453.059-.676l.041-.534.183-2.719.004-.11a.9.9 0 0 0-.257-.673.88.88 0 0 0-.663-.279h-.099c-.491 0-.906.399-.92.892v.061l.016.416z"/><circle cx="11.988" cy="16.985" r="1.216"/></g></svg>