<?xml version="1.0" encoding="UTF-8"?>
<svg xmlns="http://www.w3.org/2000/svg" version="1.1" xmlns:xlink="http://www.w3.org/1999/xlink" viewBox="0 0 211.627214 217.180044">
  <defs>
    <style>
      .st0 {
        fill: url(#linear-gradient3);
        filter: url(#outer-glow-2);
      }

      .st1 {
        fill: #fff;
      }

      .st2 {
        fill: url(#linear-gradient2);
        filter: url(#outer-glow-1);
      }

      .st3 {
        fill: url(#linear-gradient1);
        opacity: .25;
      }

      .st4 {
        fill: url(#linear-gradient);
        opacity: .57;
      }
    </style>
    <linearGradient id="linear-gradient" x1="105.743341" y1="146.144784" x2="105.743341" y2="46.192545" gradientUnits="userSpaceOnUse">
      <stop offset="0" stop-color="#2b976c"/>
      <stop offset=".5" stop-color="#33db98"/>
      <stop offset="1" stop-color="#59fcb3"/>
    </linearGradient>
    <linearGradient id="linear-gradient1" x1="105.743341" x2="105.743341" y2="46.192545" xlink:href="#linear-gradient"/>
    <linearGradient id="linear-gradient2" x1="105.883829" y1="145.723284" x2="105.883829" y2="45.771046" xlink:href="#linear-gradient"/>
    <filter id="outer-glow-1" x="43.104269" y="0" width="126" height="117" filterUnits="userSpaceOnUse">
      <feOffset dx="0" dy="0"/>
      <feGaussianBlur result="blur" stdDeviation="7.903113"/>
      <feFlood flood-color="#59fcb3" flood-opacity=".57"/>
      <feComposite in2="blur" operator="in"/>
      <feComposite in="SourceGraphic"/>
    </filter>
    <linearGradient id="linear-gradient3" x1="105.743329" y1="146.144784" x2="105.743329" y2="46.192545" xlink:href="#linear-gradient"/>
    <filter id="outer-glow-2" x="69.104269" y="6" width="73" height="73" filterUnits="userSpaceOnUse">
      <feOffset dx="0" dy="0"/>
      <feGaussianBlur result="blur1" stdDeviation="7.903113"/>
      <feFlood flood-color="#59fcb3" flood-opacity=".57"/>
      <feComposite in2="blur1" operator="in"/>
      <feComposite in="SourceGraphic"/>
    </filter>
  </defs>
  <g id="V_E_C_T_O_R_-_Logomark">
    <g>
      <g>
        <path class="st4" d="M143.892133,69.377336l-29.744968,27.030532c-4.765639,4.330741-12.042009,4.330741-16.807648,0l-29.744968-27.030532c-.008736-.008046-.016092-.017242-.024828-.025288v19.20779c0,3.313868,1.400836,6.499227,3.843075,8.738588l26.31749,24.132728c2.192578,2.01062,5.03839,3.117771,8.013054,3.117771,2.97478,0,5.820591-1.107151,8.013169-3.117771l26.317145-24.132498c2.442469-2.239591,3.843305-5.42495,3.843305-8.738818v-19.20779c-.008736.008046-.016092.017242-.024828.025288Z"/>
        <path class="st3" d="M143.892133,101.39277l-29.744968,27.030532c-4.765639,4.330741-12.042009,4.330741-16.807648,0l-29.744968-27.030532c-.008736-.008046-.016092-.017242-.024828-.025288v19.20779c0,3.313868,1.400836,6.499227,3.843075,8.738588l26.31749,24.132728c2.192578,2.01062,5.03839,3.117771,8.013054,3.117771,2.97478,0,5.820591-1.107151,8.013169-3.117771l26.317145-24.132498c2.442469-2.239591,3.843305-5.42495,3.843305-8.738818v-19.20779c-.008736.008046-.016092.017242-.024828.025288Z"/>
        <path class="st2" d="M71.553361,64.791727l26.317415,24.132784c3.546477,3.252011,8.802226,4.140773,13.548238,1.802897.765104-.376889,1.465452-.874497,2.094066-1.450929l26.701024-24.484545c2.442511-2.239615,3.843387-5.424785,3.843387-8.738731v-22.4943c0-4.975428-3.900655-9.189058-8.874434-9.31717-5.144009-.132496-9.355593,3.99786-9.355593,9.111912v15.793894c0,2.614192-1.096957,5.108423-3.023711,6.875232l-8.474605,7.771107c-4.777881,4.381257-12.112778,4.381256-16.890657-.000004l-8.474594-7.771104c-1.926752-1.76681-3.023708-4.261039-3.023708-6.87523v-15.58864c0-4.975389-3.900594-9.188998-8.874333-9.317165-5.144018-.132554-9.355694,3.997823-9.355694,9.111909v22.699558c0,3.313946,1.400894,6.499116,3.843197,8.738523Z"/>
      </g>
      <circle class="st0" cx="105.743329" cy="42.484468" r="12.031944"/>
    </g>
  </g>
</svg>