<svg xmlns="http://www.w3.org/2000/svg" viewBox="0 0 211.627 217.18" xmlns:v="https://vecta.io/nano"><defs><linearGradient id="A" x1="105.743" y1="146.145" x2="105.743" y2="46.193" gradientUnits="userSpaceOnUse"><stop offset="0" stop-color="#2b976c"/><stop offset=".5" stop-color="#33db98"/><stop offset="1" stop-color="#59fcb3"/></linearGradient><linearGradient id="B" href="#A"/><linearGradient id="C" x1="105.884" y1="145.723" x2="105.884" y2="45.771" href="#A"/><filter id="D" x="43.104" y="0" width="126" height="117" filterUnits="userSpaceOnUse"><feOffset/><feGaussianBlur result="A" stdDeviation="7.903"/><feFlood flood-color="#59fcb3" flood-opacity=".57"/><feComposite in2="A" operator="in"/><feComposite in="SourceGraphic"/></filter><linearGradient id="E" href="#A"/><filter id="F" x="69.104" y="6" width="73" height="73" filterUnits="userSpaceOnUse"><feOffset/><feGaussianBlur result="A" stdDeviation="7.903"/><feFlood flood-color="#59fcb3" flood-opacity=".57"/><feComposite in2="A" operator="in"/><feComposite in="SourceGraphic"/></filter></defs><path d="M23.706 192.43c-1.514 0-2.742 1.228-2.742 2.742v15.097h-8.761l-6.718-6.718v-8.379c0-1.515-1.228-2.742-2.742-2.742S0 193.658 0 195.173v9.515a2.74 2.74 0 0 0 .803 1.939l8.324 8.324a2.74 2.74 0 0 0 1.939.803h12.639c1.514 0 2.742-1.228 2.742-2.742v-17.839c0-1.515-1.228-2.742-2.742-2.742zm39.408 17.84h-5.652l6.007-6.007a2.74 2.74 0 0 0 .803-1.939v-6.46c0-1.515-1.228-2.742-2.742-2.742H40.932c-1.514 0-2.742 1.228-2.742 2.742v17.149c0 1.515 1.228 2.742 2.742 2.742h22.182c1.514 0 2.742-1.228 2.742-2.742s-1.228-2.742-2.742-2.742zm-19.44 0v-11.664h15.113v2.582l-9.082 9.082h-6.031zm56.411 0H86.961l-5.097-5.097v-6.197h14.992v3.189c0 1.515 1.228 2.742 2.742 2.742s2.742-1.228 2.742-2.742v-5.931c0-1.515-1.228-2.742-2.742-2.742H79.121c-1.514 0-2.742 1.228-2.742 2.742v10.075a2.74 2.74 0 0 0 .803 1.939l6.704 6.704a2.74 2.74 0 0 0 1.939.803h14.26c1.514 0 2.742-1.228 2.742-2.742s-1.228-2.742-2.742-2.742zm37.923-6.318h-.018c-1.506 0-2.732 1.216-2.742 2.725l-.023 3.593h-9.973l-5.849-5.849v-5.385h18.465c1.514 0 2.742-1.228 2.742-2.742s-1.228-2.742-2.742-2.742h-18.465v-1.565c0-1.515-1.228-2.742-2.742-2.742s-2.742 1.228-2.742 2.742v13.57a2.74 2.74 0 0 0 .803 1.939l7.455 7.455a2.74 2.74 0 0 0 1.939.803h13.834a2.74 2.74 0 0 0 2.742-2.725l.041-6.318c.01-1.515-1.21-2.75-2.725-2.76zm37.786-10.198h-20.598c-1.514 0-2.742 1.228-2.742 2.742v16.515a2.74 2.74 0 0 0 2.742 2.742h.006l13.56-.031a2.74 2.74 0 0 0 1.933-.803l7.039-7.038a2.74 2.74 0 0 0 .803-1.939v-9.446c0-1.515-1.228-2.742-2.742-2.742zm-2.742 11.052l-5.435 5.435-9.679.021v-11.024h15.114v5.568zm35.833-11.692h-8.989a2.74 2.74 0 0 0-1.939.803l-2.357 2.357v-.424c0-1.515-1.228-2.742-2.742-2.742s-2.742 1.228-2.742 2.742v18.587c0 1.515 1.228 2.742 2.742 2.742s2.742-1.228 2.742-2.742v-10.406l5.432-5.432h5.11v2.347c0 1.515 1.228 2.742 2.742 2.742s2.742-1.228 2.742-2.742v-5.089c0-1.515-1.228-2.742-2.742-2.742z" fill="#fff"/><path d="M143.892 69.377l-29.745 27.031a12.5 12.5 0 0 1-16.808 0L67.595 69.377l-.025-.025V88.56c0 3.314 1.401 6.499 3.843 8.739l26.317 24.133c2.193 2.011 5.038 3.118 8.013 3.118s5.821-1.107 8.013-3.118l26.317-24.132c2.442-2.24 3.843-5.425 3.843-8.739V69.352l-.025.025z" fill="url(#A)" opacity=".57"/><path d="M143.892 101.393l-29.745 27.031a12.5 12.5 0 0 1-16.808 0l-29.745-27.031-.025-.025v19.208c0 3.314 1.401 6.499 3.843 8.739l26.317 24.133c2.193 2.011 5.038 3.118 8.013 3.118s5.821-1.107 8.013-3.118l26.317-24.132c2.442-2.24 3.843-5.425 3.843-8.739v-19.208l-.025.025z" fill="url(#B)" opacity=".25"/><path d="M71.553 64.792l26.317 24.133c3.546 3.252 8.802 4.141 13.548 1.803.765-.377 1.465-.874 2.094-1.451l26.701-24.485c2.443-2.24 3.843-5.425 3.843-8.739V33.559c0-4.975-3.901-9.189-8.874-9.317-5.144-.132-9.356 3.998-9.356 9.112v15.794a9.33 9.33 0 0 1-3.024 6.875l-8.475 7.771a12.5 12.5 0 0 1-16.891 0l-8.475-7.771a9.33 9.33 0 0 1-3.024-6.875V33.559c0-4.975-3.901-9.189-8.874-9.317-5.144-.133-9.356 3.998-9.356 9.112v22.7c0 3.314 1.401 6.499 3.843 8.739z" fill="url(#C)" filter="url(#D)"/><circle cx="105.743" cy="42.484" r="12.032" fill="url(#E)" filter="url(#F)"/></svg>