<svg xmlns="http://www.w3.org/2000/svg" viewBox="0 0 512 512"><path d="m351.61 193.53-92.262 0c10.193 0 27.24 17.865 27.24 36.89 0 19.026-17.047 32.005-27.24 32.005h92.262c10.192 0 18.452-15.424 18.452-34.447 0-19.026-8.26-34.448-18.452-34.448z" fill="#7f7f7f"/><path d="m448.425 104.066c8.187-3.254 10.914-10.852 12.732-2.168 1.818 8.682-30.016 30.386-30.016 30.386l-9.096-20.619s18.192-4.343 26.38-7.599z" fill="#b2b2b2"/><path d="m227.637 151.815h100.966c12.053 0 24.447 11.661 27.679 26.047l15.102 67.283c3.23 14.383-3.927 33.042-15.981 33.042l-91.96 2c-22.74 0-47.76-20.023-54.096-48.238l-7.694-55.09c-3.23-14.383 13.928-25.045 25.984-25.045zm.635 53.479 6.695 29.814c3.625 16.147 10.505 23.601 23.518 23.601h43.18c6.9 0 10.993-6.676 9.144-14.906l-8.645-38.51c-1.848-8.23-8.94-14.903-15.839-14.903h-48.902c-6.902-.001-10.997 6.673-9.15 14.903z" fill="#b2b2b2"/><path d="m7.726 95.384h404.312l15.376 13.054 16.46 81.36H7.724s-6.366-17.364-6.366-46.664c.001-29.3 6.368-47.75 6.368-47.75z" fill="#b2b2b2"/><path d="M5.453 95.384h406.586c10.006 0 12.433 3.981 14.84 10.768 2.616 7.376 10.531 61.644 15.482 66.282 1.935 1.815 6.521 2.811 11.21 3.83 7.305 1.587 14.862 3.228 13.045 8.106-1.02 2.737-5.248 4.88-10.607 7.597-12.313 6.242-30.597 15.51-29.66 41.963 3.759 12.359 8.319 24.952 14.798 38.345 9.908 20.493 29.109 43.407 44.571 83.56 6.318 16.407 8.688 31.545 9.282 43.712v13.031c-.502 9.989-2.004 15.965-2.004 15.965s-17.952 5.586-46.991 7.236c-29.039 1.65-70.348-7.236-70.348-7.236s-75.344-213.414-79.512-222.282c-4.17-8.868-11.447-13.208-21.452-13.208H105.508s-5.335-2.087-5.306-3.256c0 0 5.388.379 5.39-.274.075-9.19-.74-33.938-10.998-45.305C81.86 79.74-.904 84.08-.904 84.08v-.006c0-12.48 6.366-39.061 6.366-39.061z" fill="#999"/><path d="M105.542 189.619c.034 1.264.05 2.415.054 3.434h-.088s-5.335-2.087-5.305-3.256c0 0 4.818.335 5.339-.178z" fill="#BCBCBC"/><path d="M-.67 134.441c4.912-.243 82.93-3.883 95.264 9.78 10.26 11.366 11.073 36.114 10.999 45.305 0 .035-.022.066-.05.095-.3-11.174-2.146-30.763-10.949-40.518C81.86 135.006-.904 139.344-.904 139.344c0-1.46.089-3.118.244-4.897z" fill="#888889"/><path d="M320.663 167.003H259.047c-8.071 0-14.615 3.739-14.615 8.35 0 4.612 6.544 8.35 14.615 8.35h61.616c8.072 0 14.616-3.739 14.616-8.35 0-4.612-6.543-8.35-14.616-8.35z" fill="#ccc"/><path d="M326.224 166.043s28.836.406 39.285.406c10.448 0 20.867 2.425 25.548 15.886l98.094 245.34c-8.122 1.775-21.432 4.107-38.571 5.083-16.625.947-37.222-1.529-51.972-3.854l-86.323-247.053c-4.68-13.457 4.14-15.807 13.938-15.807z" fill="#333"/><path d="m436.448 155.071.85 4.34H102.123c-.415-1.478-.865-2.935-1.38-4.34h335.705z" fill="#A6A7A9"/><path d="M5.453 94.55s396.58 0 406.586 0c9.503 0 12.167 3.593 14.475 9.766H3.291c1.188-5.697 2.163-9.766 2.163-9.766z" fill="#b2b2b2"/><path d="m416.703 87.882-47.667 0 9.2 15.611h47.666l-9.199-15.611z" fill="#666"/><path d="M416.586 384.518c3.726-4.749 10.115-6.061 15.149-2.787 5.035 3.272 6.977 9.997 4.87 15.795l-20.019-13.008z" fill="#b2b2b2"/><path d="M419.403 404.028c-5.12-3.328-7.041-10.224-4.762-16.086l20.093 13.059c-3.693 4.944-10.214 6.35-15.331 3.027z" fill="#b2b2b2"/><path d="m263.66 119.613-89.833 0 17.335 36.487h89.835l-17.337-36.487z" fill="#7f7f7f"/><path d="M347.17 198.353c3.726-4.747 10.116-6.059 15.148-2.786 5.036 3.272 6.979 9.997 4.872 15.795l-20.02-13.009z" fill="#b2b2b2"/><path d="M349.988 217.864c-5.12-3.328-7.042-10.223-4.761-16.086l20.093 13.06c-3.694 4.941-10.215 6.35-15.332 3.026z" fill="#b2b2b2"/></svg>